<svg xmlns="http://www.w3.org/2000/svg" viewBox="0 0 2122.72 813.18"><defs><style>.cls-1{fill:#ed2024;}.cls-2{font-size:122.82px;font-family:Avenir-MediumOblique, Avenir;font-weight:500;font-style:oblique;}</style></defs><g id="Layer_2" data-name="Layer 2"><g id="Layer_1-2" data-name="Layer 1"><path class="cls-1" d="M1731.46,255.63a233.86,233.86,0,0,0-223.37-38.1c-91,31.91-156.21,118.57-156.21,220.45,0,98.89,61.5,183.45,148.33,217.52a233.32,233.32,0,0,0,231.25-35.18V655.5h108V219h-108ZM1585.47,584a146,146,0,1,1,146-146A146,146,0,0,1,1585.47,584Z"/><path class="cls-1" d="M1117.65,246.56V415.19a97,97,0,0,0-2.27-12.37A94.91,94.91,0,0,0,928.51,426.3V655.5h-108V426.3a94.9,94.9,0,1,0-189.79,0V655.5h-108V219h108V246.9a201.28,201.28,0,0,1,90.52-23.47c.47,0,1,0,1.46,0,1,0,1.92,0,2.92,0a202.64,202.64,0,0,1,148.91,65.08,203.06,203.06,0,0,1,240.89-43.09Z"/><path class="cls-1" d="M2096.53,217.53a232.07,232.07,0,0,0-99.36,35.12V221.91h-108V655.5h108V375.17a145.83,145.83,0,0,1,125.55-71.51V217.53Z"/><path class="cls-1" d="M233.59,204.39C104.59,204.39,0,309,0,438S104.59,671.56,233.59,671.56,467.17,567,467.17,438,362.58,204.39,233.59,204.39Zm0,379.58a146,146,0,1,1,146-146A146,146,0,0,1,233.59,584Z"/><text class="cls-2" transform="translate(1120.51 778.54)">Communicaiton</text><path class="cls-1" d="M1226.33,440.9l188.85,214.6H1118.3V426.3a94.71,94.71,0,0,0-.65-11.11V246.56l.65.34V0h108V217.53h191.42l-24.39,27.72,0,0-167,189.79h-.21c0,1,0,1.95-.14,2.92s-.09,1.92-.18,2.92Z"/><path class="cls-1" d="M1117.65,415.19a94.71,94.71,0,0,1,.65,11.11V655.4h-.65Z"/></g></g></svg>