<?xml version="1.0" encoding="UTF-8"?><svg id="Layer_2" xmlns="http://www.w3.org/2000/svg" viewBox="0 0 2009.34 263.1"><defs><style>.cls-1{fill:#292728;}</style></defs><g id="Layer_1-2"><path class="cls-1" d="M394.92,121.63c5.75,0,10.72-.64,14.92-1.91,4.06-1.24,7.43-3.09,10.08-5.53,2.63-2.43,4.61-5.37,5.94-8.82,1.35-3.54,2.03-7.63,2.03-12.28,0-9.7-2.67-16.92-8-21.62-5.43-4.79-13.75-7.19-24.98-7.19h-32.14v57.36h32.14ZM628.92,199.97c6.17,0,11.97-.7,17.39-2.09,5.43-1.4,10.53-3.48,15.28-6.26,4.76-2.78,9-6.15,12.71-10.1,3.71-3.96,6.93-8.54,9.63-13.72,2.71-5.18,4.74-10.79,6.1-16.81,1.35-6.03,2.04-12.51,2.04-19.43,0-13.77-2.71-25.8-8.12-36.1-2.7-5.13-5.91-9.66-9.63-13.58-3.7-3.9-7.94-7.22-12.71-9.96-9.52-5.48-20.42-8.22-32.69-8.22s-23.17,2.74-32.69,8.21c-4.76,2.74-9,6.07-12.7,9.97-3.72,3.91-6.93,8.44-9.63,13.58-5.42,10.3-8.12,22.33-8.12,36.1s2.71,25.86,8.12,36.24c2.69,5.17,5.91,9.75,9.64,13.72,3.71,3.95,7.95,7.32,12.71,10.1,4.76,2.78,9.86,4.86,15.28,6.25,5.42,1.4,11.22,2.1,17.39,2.1ZM628.92,232.84c-9.17,0-18-1.08-26.45-3.23-8.45-2.15-16.54-5.39-24.28-9.71-7.74-4.32-14.68-9.5-20.8-15.53-6.12-6.03-11.44-12.91-15.95-20.64-4.5-7.73-7.89-15.95-10.14-24.66-2.25-8.71-3.38-17.88-3.38-27.5s1.13-18.78,3.38-27.47c2.25-8.68,5.64-16.87,10.15-24.56,4.51-7.69,9.82-14.54,15.94-20.53,6.12-6,13.06-11.17,20.8-15.49,7.74-4.32,15.84-7.56,24.28-9.71,8.46-2.15,17.28-3.23,26.45-3.23s18.14,1.08,26.65,3.23c8.5,2.15,16.63,5.4,24.37,9.71,7.74,4.32,14.66,9.49,20.76,15.49,6.1,6,11.39,12.86,15.84,20.54,4.45,7.67,7.8,15.87,10.04,24.57,2.23,8.69,3.35,17.84,3.35,27.45s-1.12,18.8-3.34,27.49c-2.24,8.7-5.59,16.93-10.04,24.66-4.46,7.74-9.75,14.63-15.84,20.65-6.09,6.02-13.02,11.2-20.76,15.53-7.74,4.32-15.86,7.56-24.37,9.71-8.51,2.15-17.4,3.23-26.65,3.23ZM862.66,232.84c-6.62,0-12.93-.58-18.92-1.75-6-1.16-11.69-2.93-17.05-5.27-5.37-2.35-10.19-5.21-14.44-8.56-4.27-3.38-7.96-7.25-11.05-11.59-3.12-4.38-5.46-9.15-7.03-14.29-1.56-5.12-2.34-10.58-2.34-16.36v-2.74h39l.22,2.5c.34,3.82,1.26,7.29,2.75,10.41,1.48,3.08,3.55,5.85,6.21,8.3,2.61,2.41,5.78,4.22,9.48,5.43,3.8,1.24,8.19,1.87,13.17,1.87s9.76-.62,13.73-1.84c3.88-1.2,7.2-3,9.95-5.37,2.74-2.36,4.79-5.06,6.15-8.08,1.36-3.03,2.04-6.43,2.04-10.2,0-2.93-.41-5.56-1.25-7.87-.82-2.27-2.05-4.29-3.69-6.05-1.74-1.86-3.7-3.53-5.88-4.98-2.21-1.47-4.62-2.72-7.24-3.75-2.77-1.09-6.06-2.22-9.87-3.39-3.88-1.19-8.29-2.43-13.21-3.7-6.38-1.68-12.12-3.37-17.22-5.06-5.13-1.7-9.73-3.43-13.77-5.19-4.15-1.8-7.99-4.11-11.51-6.9-3.5-2.78-6.72-6.07-9.63-9.85-5.92-7.7-8.88-17.85-8.88-30.45,0-11.62,2.92-21.82,8.76-30.58,2.9-4.36,6.41-8.23,10.51-11.59,4.06-3.33,8.7-6.16,13.91-8.48,5.19-2.31,10.77-4.03,16.71-5.17,5.94-1.14,12.28-1.71,18.99-1.71,9.56,0,18.31,1.21,26.22,3.62,7.96,2.43,15.05,6.08,21.26,10.94,12.54,9.82,19.49,23.25,20.84,40.27l.24,2.95h-40.37l-.2-2.52c-.25-3.12-1.1-6.01-2.56-8.64-1.5-2.69-3.63-5.18-6.41-7.45-2.77-2.27-5.99-3.98-9.66-5.11-3.74-1.16-7.97-1.74-12.69-1.74-4.25,0-8.09.54-11.51,1.6-3.36,1.05-6.34,2.62-8.93,4.71-2.5,2.01-4.38,4.48-5.63,7.39-1.28,2.97-1.92,6.45-1.92,10.41,0,2.64.39,5.02,1.17,7.11.77,2.07,1.93,3.92,3.47,5.54,1.64,1.73,3.53,3.29,5.65,4.68,2.13,1.4,4.51,2.63,7.1,3.66,2.63,1.05,5.84,2.18,9.63,3.38,3.62,1.16,7.88,2.4,12.75,3.71,12.87,3.55,23.39,7.1,31.52,10.66,4.22,1.84,8.13,4.19,11.74,7.04,3.6,2.84,6.87,6.18,9.82,9.99,3.02,3.91,5.29,8.47,6.79,13.67,1.48,5.14,2.23,10.87,2.23,17.2,0,5.14-.7,10.15-2.08,15-1.37,4.82-3.45,9.52-6.21,14.09-2.78,4.57-6.17,8.69-10.18,12.33-3.99,3.63-8.62,6.82-13.86,9.57-5.24,2.74-10.95,4.79-17.11,6.16-6.15,1.36-12.73,2.04-19.72,2.04ZM1073.69,232.84c-6.61,0-12.93-.58-18.92-1.75-6-1.16-11.69-2.93-17.05-5.27-5.37-2.35-10.19-5.21-14.44-8.56-4.27-3.38-7.96-7.25-11.05-11.59-3.12-4.38-5.46-9.15-7.03-14.29-1.56-5.12-2.34-10.58-2.34-16.36v-2.74h39.01l.22,2.5c.34,3.82,1.26,7.29,2.75,10.41,1.48,3.08,3.55,5.85,6.21,8.3,2.61,2.41,5.78,4.22,9.48,5.43,3.8,1.24,8.19,1.87,13.17,1.87s9.76-.62,13.73-1.84c3.88-1.2,7.2-3,9.95-5.37,2.74-2.36,4.79-5.06,6.14-8.08,1.36-3.03,2.04-6.43,2.04-10.2,0-2.93-.42-5.56-1.25-7.87-.82-2.27-2.05-4.29-3.69-6.05-1.74-1.86-3.7-3.53-5.87-4.98-2.21-1.47-4.62-2.72-7.24-3.75-2.76-1.09-6.06-2.22-9.87-3.39-3.88-1.19-8.29-2.43-13.21-3.7-6.38-1.68-12.12-3.37-17.22-5.06-5.13-1.7-9.73-3.43-13.77-5.19-4.15-1.8-7.99-4.11-11.51-6.9-3.5-2.78-6.72-6.07-9.62-9.85-5.92-7.7-8.88-17.85-8.88-30.45,0-11.62,2.92-21.82,8.76-30.58,2.9-4.36,6.41-8.23,10.51-11.59,4.06-3.33,8.7-6.16,13.91-8.48,5.19-2.31,10.77-4.03,16.71-5.17,5.94-1.14,12.28-1.71,18.99-1.71,9.57,0,18.31,1.21,26.23,3.62,7.96,2.43,15.05,6.08,21.26,10.94,12.54,9.82,19.49,23.25,20.84,40.27l.24,2.95h-40.37l-.2-2.52c-.24-3.12-1.1-6.01-2.56-8.64-1.5-2.69-3.63-5.18-6.41-7.45-2.77-2.27-5.99-3.98-9.66-5.11-3.74-1.16-7.97-1.74-12.69-1.74-4.25,0-8.09.54-11.51,1.6-3.36,1.05-6.34,2.62-8.93,4.71-2.5,2.01-4.38,4.48-5.63,7.39-1.28,2.97-1.92,6.45-1.92,10.41,0,2.64.39,5.02,1.17,7.11.77,2.07,1.93,3.92,3.47,5.54,1.64,1.73,3.53,3.29,5.64,4.68,2.14,1.4,4.51,2.63,7.1,3.66,2.63,1.05,5.84,2.18,9.63,3.38,3.62,1.16,7.88,2.4,12.75,3.71,12.87,3.55,23.38,7.1,31.52,10.66,4.22,1.84,8.13,4.19,11.74,7.04,3.6,2.84,6.87,6.18,9.82,9.99,3.02,3.91,5.29,8.47,6.79,13.67,1.48,5.14,2.23,10.87,2.23,17.2,0,5.14-.69,10.15-2.08,15-1.37,4.82-3.45,9.52-6.22,14.09-2.78,4.57-6.17,8.69-10.18,12.33-3.99,3.63-8.62,6.82-13.86,9.57-5.24,2.74-10.95,4.79-17.11,6.16-6.15,1.36-12.73,2.04-19.72,2.04ZM1283.62,121.63c5.75,0,10.72-.64,14.92-1.91,4.07-1.24,7.43-3.09,10.08-5.53,2.63-2.43,4.61-5.37,5.94-8.82,1.35-3.54,2.03-7.63,2.03-12.28,0-9.7-2.67-16.92-8-21.62-5.42-4.79-13.75-7.19-24.97-7.19h-32.14v57.36h32.14ZM1354.46,93.09c0,5.09-.61,10.06-1.82,14.91-1.21,4.84-3.02,9.53-5.42,14.05-2.46,4.59-5.63,8.76-9.52,12.48-3.87,3.7-8.46,6.98-13.75,9.81-5.3,2.84-11.34,4.98-18.11,6.39-6.71,1.4-14.12,2.11-22.22,2.11h-32.14v78.06h-37.03V33.06h69.17c7.52,0,14.52.66,20.98,1.97,6.5,1.32,12.41,3.3,17.73,5.93,5.34,2.65,10.02,5.78,14.04,9.38,4.04,3.62,7.39,7.72,10.08,12.32,2.67,4.55,4.67,9.38,6,14.46,1.33,5.09,2,10.42,2,15.98ZM1520.39,199.97c6.17,0,11.96-.7,17.39-2.09,5.43-1.4,10.53-3.48,15.28-6.26,4.76-2.78,9-6.15,12.71-10.1,3.71-3.96,6.93-8.54,9.63-13.72,2.71-5.18,4.74-10.79,6.1-16.81,1.35-6.03,2.04-12.51,2.04-19.43,0-13.77-2.71-25.8-8.12-36.1-2.7-5.13-5.91-9.66-9.62-13.58-3.7-3.9-7.94-7.22-12.7-9.96-9.52-5.48-20.43-8.22-32.69-8.22s-23.17,2.74-32.69,8.21c-4.76,2.74-9,6.07-12.7,9.97-3.72,3.91-6.93,8.44-9.63,13.58-5.42,10.3-8.12,22.33-8.12,36.1s2.71,25.86,8.12,36.24c2.69,5.17,5.91,9.75,9.64,13.72,3.71,3.95,7.95,7.32,12.71,10.1,4.76,2.78,9.86,4.86,15.28,6.25,5.42,1.4,11.22,2.1,17.39,2.1ZM1520.39,232.84c-9.17,0-18-1.08-26.45-3.23-8.44-2.15-16.54-5.39-24.28-9.71-7.74-4.32-14.68-9.5-20.8-15.53-6.12-6.03-11.44-12.91-15.95-20.64-4.5-7.73-7.88-15.95-10.14-24.66-2.25-8.71-3.38-17.88-3.38-27.5s1.13-18.78,3.38-27.47c2.25-8.68,5.64-16.87,10.15-24.56,4.51-7.69,9.83-14.54,15.94-20.53,6.12-6,13.06-11.17,20.8-15.49,7.74-4.32,15.84-7.56,24.28-9.71,8.46-2.15,17.28-3.23,26.45-3.23s18.14,1.08,26.65,3.23c8.5,2.15,16.63,5.4,24.36,9.71,7.74,4.32,14.67,9.49,20.76,15.49,6.1,6,11.39,12.86,15.84,20.54,4.45,7.67,7.8,15.87,10.04,24.57,2.23,8.69,3.35,17.84,3.35,27.45s-1.12,18.8-3.34,27.49c-2.24,8.7-5.59,16.93-10.05,24.66-4.46,7.74-9.75,14.63-15.85,20.65-6.09,6.02-13.02,11.2-20.76,15.53-7.74,4.32-15.86,7.56-24.36,9.71-8.51,2.15-17.4,3.23-26.65,3.23ZM1723.65,199.97h88.54v30.94h-125.57V33.06h37.03v166.91ZM1919.4,64v50.99h81.63v31.21h-81.63v53.49h89.93v31.21h-126.96V32.78h126.96v31.22h-89.93ZM465.75,93.09c0,5.09-.61,10.06-1.82,14.91-1.21,4.84-3.02,9.53-5.43,14.05-2.45,4.59-5.63,8.76-9.52,12.48-3.87,3.7-8.46,6.98-13.75,9.81-5.3,2.84-11.34,4.98-18.11,6.39-6.71,1.4-14.12,2.11-22.21,2.11h-32.14v78.06h-37.03V33.06h69.17c7.52,0,14.52.66,20.98,1.97,6.5,1.32,12.41,3.3,17.73,5.93,5.34,2.65,10.02,5.78,14.04,9.38,4.03,3.62,7.39,7.72,10.08,12.32,2.66,4.55,4.67,9.38,6,14.46,1.33,5.09,2,10.42,2,15.98Z"/><path class="cls-1" d="M201.3,61.8c-17.85-17.85-42.51-28.89-69.75-28.89s-51.9,11.04-69.75,28.89c-17.85,17.85-28.89,42.51-28.89,69.75s11.04,51.9,28.89,69.75c17.85,17.85,42.51,28.89,69.75,28.89s51.9-11.04,69.75-28.89c17.85-17.85,28.89-42.51,28.89-69.75s-11.04-51.9-28.89-69.75ZM209.6,177.05h-26.12c3.81-12.46,6.07-26.51,6.43-41.39h31.86c-.68,15.06-5,29.13-12.16,41.39ZM41.33,135.66h31.86c.36,14.88,2.61,28.93,6.43,41.39h-26.13c-7.16-12.26-11.48-26.33-12.16-41.39ZM53.49,86.05h26.13c-3.81,12.46-6.07,26.51-6.43,41.38h-31.86c.68-15.05,5-29.13,12.16-41.38ZM135.66,77.83v-36.34c11.83,1.77,22.62,11.05,30.79,25.25,1.96,3.41,3.73,7.16,5.36,11.09h-36.15ZM174.87,86.05c4.03,12.27,6.44,26.33,6.82,41.38h-46.03v-41.38h39.21ZM127.44,41.5v36.34h-36.15c1.63-3.93,3.4-7.68,5.36-11.09,8.17-14.2,18.95-23.47,30.79-25.25ZM127.44,86.05v41.38h-46.03c.38-15.05,2.8-29.12,6.82-41.38h39.21ZM81.41,135.66h46.03v41.39h-39.21c-4.03-12.27-6.44-26.34-6.82-41.39ZM127.44,185.27v36.33c-11.83-1.77-22.62-11.05-30.79-25.24-1.96-3.41-3.73-7.16-5.36-11.09h36.15ZM135.66,221.6v-36.33h36.15c-1.63,3.93-3.4,7.67-5.36,11.09-8.17,14.2-18.95,23.47-30.79,25.24ZM135.66,177.05v-41.39h46.03c-.38,15.05-2.8,29.12-6.82,41.39h-39.21ZM189.91,127.44c-.36-14.87-2.61-28.92-6.43-41.38h26.13c7.16,12.26,11.48,26.33,12.16,41.38h-31.86ZM204.17,77.83h-23.51c-2.09-5.45-4.46-10.55-7.12-15.17-3.73-6.49-8.02-12.04-12.7-16.59,13.17,4.52,25.01,11.9,34.64,21.54,3.16,3.16,6.01,6.62,8.68,10.22ZM67.61,67.61c9.63-9.63,21.47-17.02,34.64-21.54-4.68,4.55-8.97,10.11-12.7,16.59-2.66,4.62-5.03,9.72-7.12,15.17h-23.51c2.67-3.6,5.52-7.06,8.68-10.22ZM58.93,185.27h23.51c2.09,5.45,4.46,10.54,7.12,15.16,3.73,6.49,8.02,12.04,12.7,16.59-13.17-4.51-25.01-11.9-34.65-21.54-3.16-3.16-6.01-6.62-8.68-10.22ZM195.49,195.49c-9.63,9.64-21.47,17.02-34.64,21.54,4.68-4.55,8.97-10.11,12.7-16.59,2.66-4.62,5.03-9.71,7.12-15.16h23.5c-2.67,3.6-5.51,7.06-8.68,10.22Z"/><path class="cls-1" d="M216.83,46.27c-21.82-21.82-51.98-35.32-85.28-35.32s-63.46,13.5-85.28,35.32c-21.82,21.82-35.32,51.97-35.32,85.28s13.5,63.46,35.32,85.28c21.82,21.82,51.98,35.32,85.28,35.32s63.46-13.5,85.28-35.32c21.82-21.82,35.32-51.97,35.32-85.28s-13.5-63.46-35.32-85.28M131.55,0c36.32,0,69.21,14.72,93.02,38.53,23.8,23.8,38.53,56.7,38.53,93.02s-14.72,69.21-38.53,93.02c-23.8,23.8-56.7,38.53-93.02,38.53s-69.22-14.72-93.02-38.53C14.72,200.76,0,167.87,0,131.55S14.72,62.33,38.53,38.53C62.33,14.72,95.23,0,131.55,0Z"/></g></svg>