<?xml version="1.0" encoding="UTF-8"?><svg id="Layer_2" xmlns="http://www.w3.org/2000/svg" viewBox="0 0 2023.01 2023.01"><defs><style>.cls-1{fill:#fff;}.cls-2{fill:#292728;}</style></defs><g id="Layer_1-2"><rect class="cls-1" width="2023.01" height="2023.01"/><path class="cls-2" d="M1415.42,607.59c-103.37-103.37-246.18-167.31-403.9-167.31s-300.54,63.94-403.92,167.31c-103.37,103.37-167.31,246.18-167.31,403.91s63.94,300.54,167.31,403.91c103.37,103.38,246.19,167.31,403.92,167.31s300.54-63.93,403.9-167.3c103.37-103.37,167.31-246.18,167.31-403.92s-63.94-300.54-167.31-403.91ZM1463.49,1274.98h-151.28c22.09-72.17,35.14-153.52,37.23-239.68h184.48c-3.93,87.19-28.95,168.69-70.43,239.68ZM489.09,1035.3h184.49c2.09,86.16,15.13,167.51,37.23,239.68h-151.28c-41.48-70.99-66.5-152.49-70.43-239.68ZM559.5,748.06h151.29c-22.09,72.16-35.13,153.51-37.22,239.64h-184.49c3.93-87.16,28.95-168.66,70.42-239.64ZM1035.31,700.45v-210.41c68.53,10.27,130.99,63.98,178.28,146.19,11.37,19.77,21.59,41.48,31.05,64.22h-209.33ZM1262.36,748.06c23.31,71.03,37.29,152.49,39.5,239.64h-266.54v-239.64h227.05ZM987.71,490.04v210.41h-209.34c9.46-22.75,19.69-44.45,31.06-64.22,47.28-82.21,109.75-135.91,178.28-146.19ZM987.71,748.06v239.64h-266.55c2.21-87.15,16.19-168.61,39.5-239.64h227.05ZM721.16,1035.3h266.55v239.68h-227.04c-23.31-71.04-37.3-152.51-39.51-239.68ZM987.71,1322.58v210.38c-68.53-10.27-130.99-63.98-178.28-146.18-11.37-19.76-21.59-41.46-31.05-64.2h209.32ZM1035.31,1532.96v-210.38h209.32c-9.46,22.74-19.68,44.43-31.04,64.2-47.29,82.2-109.75,135.9-178.28,146.18ZM1035.31,1274.98v-239.68h266.54c-2.21,87.17-16.19,168.64-39.51,239.68h-227.03ZM1349.45,987.7c-2.09-86.13-15.14-167.48-37.23-239.64h151.29c41.47,70.98,66.49,152.48,70.41,239.64h-184.48ZM1432.03,700.45h-136.12c-12.08-31.58-25.84-61.08-41.23-87.84-21.61-37.56-46.42-69.74-73.53-96.08,76.27,26.15,144.82,68.93,200.61,124.72,18.32,18.32,34.81,38.35,50.27,59.21ZM641.26,641.25c55.79-55.79,124.33-98.58,200.61-124.72-27.11,26.35-51.92,58.52-73.53,96.08-15.39,26.76-29.15,56.27-41.23,87.84h-136.12c15.45-20.86,31.95-40.89,50.27-59.21ZM591.01,1322.58h136.11c12.08,31.56,25.83,61.06,41.22,87.81,21.61,37.57,46.42,69.74,73.53,96.09-76.27-26.14-144.82-68.93-200.62-124.72-18.31-18.31-34.79-38.33-50.24-59.17ZM1381.76,1381.75c-55.79,55.79-124.33,98.58-200.61,124.72,27.11-26.35,51.92-58.52,73.53-96.09,15.39-26.75,29.14-56.25,41.22-87.81h136.1c-15.45,20.84-31.93,40.87-50.24,59.17Z"/><path class="cls-2" d="M1505.33,517.68c-126.37-126.36-300.98-204.53-493.82-204.53s-367.46,78.17-493.83,204.53c-126.36,126.36-204.52,300.97-204.52,493.82s78.16,367.46,204.52,493.82c126.37,126.36,300.98,204.53,493.83,204.53s367.45-78.17,493.82-204.53c126.36-126.36,204.52-300.97,204.52-493.82s-78.16-367.46-204.52-493.82M1011.51,249.75c210.31,0,400.79,85.27,538.64,223.11,137.84,137.84,223.11,328.32,223.11,538.63s-85.27,400.79-223.11,538.65c-137.85,137.84-328.33,223.11-538.64,223.11s-400.8-85.27-538.65-223.11c-137.84-137.85-223.11-328.33-223.11-538.65s85.27-400.79,223.11-538.63c137.85-137.85,328.33-223.11,538.65-223.11Z"/></g></svg>