<?xml version="1.0" encoding="UTF-8"?><svg id="Layer_2" xmlns="http://www.w3.org/2000/svg" viewBox="0 0 199.08 35.1"><defs><style>.cls-1{fill:#010101;}.cls-2{fill:#e01e26;}.cls-3{fill:#0d0e0e;}</style></defs><g id="Layer_1-2"><path class="cls-3" d="M164.31,5.34l7.65,14.32.59,1.63-.1-15.95h6.09l.08.1s-.05.05-.05.07v24.25h-6.71l-7.63-14.02c-.22-.54-.38-1.12-.62-1.66-.03-.08-.03-.19-.15-.21l.13,15.88h-6.12V5.34h6.84Z"/><path class="cls-3" d="M40.92,5.34h13.11c4.64.46,7.51,4.38,7.01,8.95-.34,3.1-2.13,4.92-4.86,6.15-.07.03-.11-.04-.09.1l5.53,9.21h-6.19l-4.97-8.7-3.5-.02v8.72h-6.06V5.34ZM47.07,10.42l-.1.1v5.47l.1.1h5.47c1.5,0,2.5-1.87,2.38-3.22-.09-1.07-1.34-2.44-2.44-2.44h-5.4Z"/><polygon class="cls-3" points="81.81 10.42 70.25 10.42 70.16 10.51 70.16 15.01 70.25 15.1 80.67 15.1 80.77 15.2 80.77 19.5 80.67 19.6 70.25 19.6 70.16 19.69 70.16 24.58 70.25 24.67 82.14 24.67 82.14 29.75 64.04 29.75 64.04 5.34 81.71 5.34 81.81 5.44 81.81 10.42"/><polygon class="cls-3" points="198.69 5.34 198.69 10.42 187.2 10.42 187.1 10.51 187.1 15.1 197.65 15.1 197.65 19.5 197.55 19.6 187.1 19.6 187.1 24.67 199.08 24.67 199.08 29.75 180.98 29.75 180.98 5.34 198.69 5.34"/><polygon class="cls-3" points="126.09 5.34 126.09 10.42 114.5 10.42 114.5 15.1 125.05 15.1 125.05 19.5 124.95 19.6 114.5 19.6 114.5 24.67 126.48 24.67 126.48 29.75 108.38 29.75 108.38 5.34 126.09 5.34"/><path class="cls-2" d="M86.89,5.34v2.15h1.33l.1-.1v-2.05h3.19v2.08h1.43v-2.08c2.67-.12,5.3.49,7.55,1.93,7.06,4.5,7.38,15.27.58,20.17-2.37,1.71-5.2,2.49-8.13,2.32v-2.08h-1.43v2.08h-3.19v-2.08h-1.43v2.08h-2.34V5.34h2.34ZM88.32,26.82V8.37l-.1-.1h-1.24l-.1.1v18.46h1.43ZM92.95,8.33h-1.43v2.08c-.27.04-.64-.1-.85.1v14.16h.85v2.15h1.33l.1-.1v-2.05h1.53c.45,0,1.59-.49,2.01-.73,4.47-2.59,4.51-10.1.07-12.73-.5-.3-1.64-.79-2.2-.79h-1.4v-2.08Z"/><polygon class="cls-3" points="146.6 10.42 135.01 10.42 135.01 15.1 145.62 15.1 145.62 19.6 135.01 19.6 135.01 29.75 128.83 29.75 128.83 5.34 146.5 5.34 146.6 5.44 146.6 10.42"/><rect class="cls-3" x="148.95" y="5.34" width="6.12" height="24.41"/><polygon class="cls-1" points="1.72 35.1 20.98 17.55 1.72 0 16.03 0 35.29 17.55 16.03 35.1 1.72 35.1"/><polygon class="cls-2" points="14.37 17.55 0 30.64 0 23.05 6.04 17.55 0 12.04 0 4.46 14.37 17.55"/></g></svg>