<?xml version="1.0" encoding="UTF-8"?><svg id="Layer_2" xmlns="http://www.w3.org/2000/svg" viewBox="0 0 53.81 53.81"><defs><style>.cls-1{fill:#4c3392;}.cls-2{fill:#fff;}</style></defs><g id="Layer_1-2"><rect class="cls-1" width="53.81" height="53.81"/><path class="cls-2" d="M27.93,14.19c-.14,0-.27-.01-.4-.04-.13-.03-.26-.07-.39-.12s-.24-.12-.36-.19c-.11-.08-.22-.16-.31-.26-.1-.1-.18-.2-.26-.31s-.14-.23-.19-.36-.09-.26-.12-.39c-.03-.13-.04-.27-.04-.4s.01-.27.04-.41c.03-.13.07-.26.12-.39s.12-.25.19-.36c.08-.11.16-.22.26-.31s.2-.18.31-.26c.11-.08.23-.14.36-.19s.26-.09.39-.12.27-.04.4-.04.27.01.4.04c.13.03.26.07.39.12s.25.12.36.19c.11.08.22.16.31.26s.18.2.26.31.14.23.19.36c.05.13.09.26.12.39.03.13.04.27.04.4s-.01.27-.04.41c-.03.13-.07.26-.12.39-.05.13-.12.25-.19.36s-.16.22-.26.32c-.1.1-.2.18-.32.26-.11.08-.23.14-.36.19-.13.05-.26.09-.39.12s-.27.04-.41.04ZM32.7,11.15l-.93-.11c-.09-.3-.21-.59-.36-.87l.58-.74s.04-.06.05-.1c.01-.04.01-.07.01-.11,0-.04-.01-.07-.03-.11s-.04-.06-.06-.09l-.97-.95s-.06-.05-.09-.06-.07-.02-.11-.03-.07,0-.11.01-.07.03-.1.05l-.72.58c-.28-.15-.56-.27-.87-.36l-.11-.93s-.01-.07-.03-.11c-.02-.03-.04-.06-.07-.09-.03-.03-.06-.05-.09-.06-.04-.01-.07-.02-.11-.02h-1.33s-.07,0-.11.02c-.04.01-.07.03-.09.06-.03.03-.05.05-.07.09-.02.03-.03.07-.03.11l-.11.93c-.3.09-.59.2-.87.36l-.73-.58s-.06-.04-.1-.05c-.04-.01-.07-.02-.11-.01-.04,0-.07.01-.11.03-.03.02-.06.04-.09.06l-.94.94s-.05.06-.06.09c-.02.03-.02.07-.03.11s0,.07.01.11c.01.04.03.07.05.1l.58.74c-.15.28-.27.56-.36.87l-.91.1s-.07.02-.11.03c-.03.02-.06.04-.09.07-.02.03-.04.06-.06.1s-.02.07-.02.11v1.33s0,.07.02.11c.01.04.03.07.06.1.03.03.05.05.09.07.03.02.07.03.11.03l.93.11c.09.3.21.59.36.87l-.58.74s-.04.06-.05.1c-.01.04-.02.07-.01.11s.01.07.03.11c.02.03.04.06.06.09l.94.94s.06.05.09.06c.03.02.07.02.11.03s.07,0,.11-.01c.04-.01.07-.03.1-.05l.73-.58c.28.15.57.27.87.36l.11.93s.01.07.03.11c.02.03.04.06.07.09.03.03.06.04.09.06s.07.02.11.02h1.3s.07,0,.11-.02.07-.03.09-.06c.03-.02.05-.05.07-.09.02-.03.03-.07.03-.1l.13-.94c.3-.09.59-.2.87-.36l.73.58s.06.04.1.05c.04.01.07.02.11.01.04,0,.07-.01.11-.03.03-.02.07-.04.09-.06l.94-.94s.05-.06.06-.09c.02-.03.02-.07.03-.11,0-.04,0-.07-.01-.11-.01-.04-.03-.07-.05-.1l-.58-.74c.15-.27.27-.56.36-.87l.93-.11s.07-.02.11-.03c.03-.02.06-.04.09-.07s.04-.06.06-.1.02-.07.02-.11v-1.33s0-.07-.02-.11c-.01-.04-.03-.07-.06-.1-.02-.03-.05-.05-.09-.07s-.07-.03-.11-.03"/><path class="cls-2" d="M27.93,40.23c.12,0,.23,0,.34-.02.11-.01.23-.03.34-.05.11-.02.23-.05.34-.08s.22-.07.32-.12c.11-.04.21-.09.31-.15.1-.05.2-.11.3-.18.1-.06.19-.13.28-.21.09-.07.17-.15.26-.23s.16-.17.23-.26c.07-.09.14-.18.21-.28.06-.1.12-.19.18-.3s.1-.21.15-.31c.04-.11.08-.22.12-.33.03-.11.06-.22.08-.34.02-.11.04-.23.05-.34.01-.12.02-.23.02-.35s0-.23-.02-.35c-.01-.12-.03-.23-.05-.34-.02-.11-.05-.23-.08-.34-.03-.11-.07-.22-.12-.33-.04-.11-.09-.21-.15-.31s-.11-.2-.18-.3c-.06-.1-.13-.19-.21-.28-.07-.09-.15-.17-.23-.26-.08-.08-.17-.16-.26-.23-.09-.07-.18-.14-.28-.21-.1-.06-.19-.12-.3-.18s-.21-.1-.31-.15c-.11-.04-.21-.08-.32-.12s-.22-.06-.34-.08c-.11-.02-.23-.04-.34-.05-.11-.01-.23-.02-.34-.02s-.23,0-.35.02c-.11.01-.23.03-.34.05-.11.02-.22.05-.33.08s-.22.07-.33.12-.21.09-.31.15-.2.11-.3.18c-.1.06-.19.13-.28.21-.09.07-.17.15-.26.23-.08.08-.16.17-.23.26s-.14.18-.21.28c-.06.1-.12.19-.18.3s-.1.21-.15.31c-.04.11-.08.22-.12.33s-.06.22-.08.34c-.02.11-.04.23-.05.34-.01.11-.02.23-.02.35s0,.23.02.34c.01.12.03.23.05.34.02.11.05.22.08.33.03.11.07.22.12.33.04.11.09.21.15.31.05.1.11.2.18.3.06.1.13.19.21.28.07.09.15.17.23.26.08.08.17.16.26.23.09.07.18.14.28.21.1.06.19.12.3.18.1.05.21.1.31.15.11.04.22.08.32.12.11.03.22.06.34.08.11.02.23.04.34.05.11.01.23.02.35.02Z"/><path class="cls-2" d="M32.15,40.09s-.06-.04-.09-.05c-.03,0-.07-.01-.1,0-.03,0-.07.01-.1.03-.03.02-.06.04-.08.06-.12.14-.25.27-.38.39s-.27.24-.42.35c-.15.11-.3.21-.45.3-.16.09-.32.17-.48.25-.17.07-.33.14-.51.2-.17.06-.35.1-.52.14s-.36.07-.54.09c-.18.02-.36.03-.54.03s-.36,0-.54-.03c-.18-.02-.36-.05-.54-.09-.18-.04-.35-.09-.52-.14-.17-.06-.34-.12-.51-.2-.17-.08-.33-.16-.48-.25-.16-.09-.31-.19-.45-.3s-.29-.22-.42-.35c-.13-.12-.26-.25-.38-.39-.02-.03-.05-.05-.08-.06-.03-.02-.06-.03-.1-.03-.04,0-.07,0-.1,0-.03,0-.06.03-.09.05-.4.32-.76.67-1.07,1.07-.32.4-.59.83-.81,1.28-.22.46-.39.94-.5,1.43s-.17,1-.17,1.51v1.09s0,.07.02.1c.01.03.03.06.06.09s.05.05.09.06c.03.01.07.02.1.02h13.02s.07,0,.1-.02c.03-.01.06-.03.09-.06s.04-.05.06-.09c.01-.03.02-.07.02-.1v-1.09c0-.51-.06-1.01-.17-1.51-.11-.5-.28-.97-.5-1.43-.22-.46-.49-.89-.81-1.28s-.68-.75-1.08-1.07Z"/><path class="cls-2" d="M13.67,19.21s-.04-.04-.06-.06c-.03-.01-.05-.02-.08-.03-.03,0-.06,0-.08,0-.03,0-.05.02-.08.04-.02.02-.04.04-.06.06-.18.32-.35.64-.5.98-.01.03-.02.05-.02.08,0,.03,0,.06.01.08s.02.05.04.07c.02.02.04.04.07.05.03.01.05.02.08.02.03,0,.06,0,.08-.01.03,0,.05-.02.07-.04.02-.02.04-.04.05-.07.15-.32.31-.64.49-.95.01-.02.02-.05.03-.08,0-.03,0-.06,0-.08,0-.03-.02-.05-.04-.08Z"/><path class="cls-2" d="M12.77,21.07s-.04-.04-.07-.05c-.03-.01-.05-.02-.08-.02-.03,0-.06,0-.08.02-.03.01-.05.03-.07.05-.02.02-.04.04-.05.07l-.17.42-.28.7s-.02.05-.01.08c0,.03,0,.06.02.08.01.03.03.05.05.07.02.02.04.04.07.05.03.01.05.02.08.01.03,0,.06,0,.08-.02.03-.01.05-.03.07-.05.02-.02.04-.04.05-.07l.27-.7.17-.42s.02-.05.02-.08c0-.03,0-.06-.02-.08-.01-.03-.03-.05-.05-.07Z"/><path class="cls-2" d="M16.38,15.79s-.04-.04-.07-.05c-.03-.01-.05-.02-.08-.02-.03,0-.06,0-.08.01-.03,0-.05.02-.07.04-.27.25-.54.51-.79.78-.02.02-.03.05-.05.07,0,.03-.01.05-.01.08,0,.03,0,.06.02.08.01.03.03.05.05.07.02.02.05.03.07.05.03.01.05.01.08.01.03,0,.06,0,.08-.02.03-.01.05-.03.07-.05.25-.26.5-.51.77-.76.02-.02.04-.04.05-.07.01-.03.02-.05.02-.08,0-.03,0-.06-.01-.08,0-.03-.02-.05-.04-.07Z"/><path class="cls-2" d="M14.86,17.36s-.05-.03-.08-.04c-.03,0-.06-.01-.08,0-.03,0-.06.01-.08.03-.03.01-.05.03-.06.05-.23.29-.45.59-.66.9-.02.02-.03.05-.03.08,0,.03,0,.06,0,.08,0,.03.02.05.03.08.02.02.04.04.06.06.02.02.05.03.08.03.03,0,.06,0,.08,0,.03,0,.05-.02.08-.03.02-.02.04-.04.06-.06.2-.3.41-.59.64-.87.02-.02.03-.05.04-.08s.01-.06,0-.08c0-.03-.01-.06-.03-.08-.01-.03-.03-.05-.05-.06Z"/><path class="cls-2" d="M18.23,14.03l-1.74.32v.04l.81.41c-.13.09-.25.18-.38.28-.02.02-.04.04-.06.06-.01.02-.02.05-.03.08,0,.03,0,.06,0,.08,0,.03.02.05.04.08.02.02.04.04.06.06.03.01.05.02.08.03.03,0,.06,0,.08,0s.05-.02.08-.04c.11-.08.22-.16.33-.24v.92h.04l1.06-1.44,1.27-1.24-1.66.61Z"/><path class="cls-2" d="M38.6,15.47c-.28-.24-.56-.48-.85-.7-.02-.02-.05-.03-.08-.04s-.06,0-.08,0c-.03,0-.06.01-.08.03-.03.01-.05.03-.06.06-.02.02-.03.05-.04.08,0,.03,0,.06,0,.08,0,.03.01.06.03.08.01.02.03.05.06.06.28.22.56.45.83.69.02.02.05.03.07.04.03,0,.06.01.08.01.03,0,.06,0,.08-.02.03-.01.05-.03.07-.05.02-.02.03-.05.04-.07s.01-.05.01-.08c0-.03,0-.06-.02-.08-.01-.03-.03-.05-.05-.07Z"/><path class="cls-2" d="M36.85,14.12c-.29-.19-.59-.38-.89-.56-.03-.01-.05-.02-.08-.03-.03,0-.06,0-.08,0-.03,0-.05.02-.08.04-.02.02-.04.04-.06.06-.01.03-.02.05-.03.08,0,.03,0,.06,0,.09,0,.03.02.05.04.08.02.02.04.04.06.06.29.17.58.35.87.54.02.02.05.03.08.03.03,0,.06,0,.08,0,.03,0,.05-.02.08-.03.02-.02.04-.04.06-.06.02-.02.03-.05.03-.08,0-.03,0-.06,0-.08,0-.03-.02-.05-.03-.08-.02-.02-.04-.04-.06-.06Z"/><path class="cls-2" d="M40.06,17.39s.05-.02.07-.04c.02-.02.04-.04.05-.07s.02-.05.02-.08c0-.03,0-.06-.01-.08,0-.03-.02-.05-.04-.07-.24-.28-.49-.55-.75-.81-.02-.02-.04-.04-.07-.05-.03-.01-.05-.02-.08-.02s-.06,0-.08.02c-.03.01-.05.03-.07.05s-.04.04-.05.07c-.01.03-.02.05-.02.08s0,.06.02.08c.01.03.03.05.05.07.25.25.5.52.73.79.02.02.04.04.07.05.03.01.05.02.08.02.03,0,.06,0,.08-.01Z"/><path class="cls-2" d="M41.85,19.2l-.25-1.62-.03-.02-.41.76c-.1-.14-.2-.28-.31-.42-.02-.02-.04-.04-.06-.06-.02-.01-.05-.02-.08-.03-.03,0-.06,0-.09,0-.03,0-.05.02-.08.04s-.04.04-.06.06c-.01.02-.02.05-.03.08,0,.03,0,.06,0,.08s.02.05.04.08c.09.12.17.24.26.36h-.82v.04l1.3,1.01,1.12,1.2-.51-1.58Z"/><path class="cls-2" d="M40.12,38.64s-.05-.03-.07-.04c-.03,0-.06-.01-.08-.01-.03,0-.06,0-.08.02-.03.01-.05.03-.07.05-.24.27-.48.53-.73.79-.02.02-.04.04-.05.07-.01.03-.02.05-.02.08s0,.06.02.08c.01.03.03.05.05.07s.04.04.07.05c.03.01.05.02.08.02s.06,0,.08-.02c.03-.01.05-.03.07-.05.26-.26.51-.53.75-.81.02-.02.03-.05.04-.07,0-.03.01-.05.01-.08,0-.03,0-.06-.02-.08-.01-.03-.03-.05-.05-.07Z"/><path class="cls-2" d="M38.59,40.51s.04-.04.05-.07c.01-.03.02-.05.02-.08,0-.03,0-.06-.01-.08,0-.03-.02-.05-.04-.07-.02-.02-.04-.04-.07-.05-.03-.01-.05-.02-.08-.02-.03,0-.06,0-.08.01-.03,0-.05.02-.07.04-.11.1-.23.19-.34.28l-.05-.81h-.03l-.92,1.37-1.11,1.2,1.51-.62,1.6-.37v-.03l-.78-.36c.13-.11.27-.22.41-.33Z"/><path class="cls-2" d="M41.48,36.94s-.04-.04-.06-.06c-.02-.02-.05-.03-.08-.03-.03,0-.06,0-.09,0-.03,0-.05.02-.08.03-.02.02-.04.04-.06.06-.2.3-.41.59-.62.88-.02.02-.03.05-.04.08s0,.06,0,.08c0,.03.01.06.03.08.01.03.03.05.06.06.02.02.05.03.08.04.03,0,.06,0,.08,0,.03,0,.06-.01.08-.03.03-.01.05-.03.06-.06.22-.29.44-.59.64-.9.02-.02.03-.05.03-.08,0-.03,0-.06,0-.09,0-.03-.02-.05-.03-.08Z"/><path class="cls-2" d="M42.44,35.4s-.02-.05-.04-.07c-.02-.02-.04-.04-.07-.05-.03-.01-.05-.02-.08-.02-.03,0-.06,0-.08,0-.03,0-.05.02-.07.04-.02.02-.04.04-.05.07-.11.22-.23.44-.36.66-.01.03-.02.05-.03.08,0,.03,0,.06,0,.08,0,.03.02.05.04.08.02.02.04.04.06.06.02.01.05.02.08.03.03,0,.06,0,.08,0s.05-.02.08-.04c.02-.02.04-.04.06-.06.13-.22.25-.45.37-.68.01-.03.02-.05.02-.08,0-.03,0-.06,0-.08Z"/><path class="cls-2" d="M16.87,40.22c-.28-.23-.55-.47-.81-.72-.02-.02-.05-.03-.07-.05-.03,0-.05-.01-.08-.01-.03,0-.06,0-.08.02-.03.01-.05.03-.07.05s-.03.05-.04.07c-.01.03-.01.05-.01.08,0,.03,0,.06.02.08.01.03.03.05.05.07.27.25.54.5.83.73.02.02.05.03.07.04.03,0,.06.01.08,0,.03,0,.06-.01.08-.02.03-.01.05-.03.07-.05.02-.02.03-.05.04-.07,0-.03.01-.06,0-.08,0-.03-.01-.06-.02-.08-.01-.03-.03-.05-.05-.07Z"/><path class="cls-2" d="M15.29,38.74c-.25-.26-.49-.53-.72-.8-.02-.02-.04-.04-.07-.05-.03-.01-.05-.02-.08-.02-.03,0-.06,0-.08,0-.03,0-.05.02-.07.04-.02.02-.04.04-.05.07-.01.03-.02.05-.02.08,0,.03,0,.06,0,.08,0,.03.02.05.04.07.24.28.48.55.74.82.02.02.04.04.07.05.03.01.05.02.08.02.03,0,.06,0,.08-.01.03-.01.05-.03.07-.05.02-.02.04-.04.05-.07.01-.03.02-.05.02-.08,0-.03,0-.06-.01-.08-.01-.03-.03-.05-.05-.07Z"/><path class="cls-2" d="M13.9,37.1c-.08-.11-.16-.23-.24-.34l.8.04v-.04l-1.25-1.06-1.08-1.24c.15.53.3,1.05.43,1.58l.22,1.63h.03l.44-.74c.1.14.2.29.31.43.02.02.04.04.06.06.03.01.05.02.08.03.03,0,.06,0,.08,0,.03,0,.05-.02.08-.04.02-.02.04-.04.06-.06.01-.02.02-.05.03-.08,0-.03,0-.06,0-.08s-.02-.05-.04-.08Z"/><path class="cls-2" d="M20.24,42.56s-.02-.05-.04-.08c-.02-.02-.04-.04-.07-.05-.21-.11-.43-.23-.64-.36-.03-.01-.05-.02-.08-.03-.03,0-.06,0-.08,0s-.05.02-.08.04c-.02.02-.04.04-.06.06-.01.03-.02.05-.03.08,0,.03,0,.06,0,.08,0,.03.02.05.04.08.02.02.04.04.06.06.21.13.43.25.65.36.03.01.05.02.08.02.03,0,.06,0,.08,0,.03,0,.05-.02.07-.04s.04-.04.05-.07c.01-.03.02-.05.02-.08,0-.03,0-.06,0-.08Z"/><path class="cls-2" d="M18.65,41.57s-.04-.04-.06-.06c-.3-.2-.59-.41-.88-.62-.02-.02-.05-.03-.08-.04-.03,0-.06,0-.08,0-.03,0-.05.01-.08.03-.03.01-.05.03-.06.06-.02.02-.03.05-.04.08,0,.03,0,.06,0,.09,0,.03.01.05.03.08.01.02.03.05.06.06.29.22.59.43.9.63.02.02.05.03.08.03.03,0,.06,0,.08,0,.03,0,.05-.02.08-.03.02-.02.04-.04.06-.06.02-.02.03-.05.03-.08,0-.03,0-.06,0-.09,0-.03-.02-.05-.03-.08Z"/><path class="cls-2" d="M11.04,31.46s0-.04,0-.06v-5.56c0-.09-.03-.18-.08-.26-.19-.28-.41-.53-.69-.73-.27-.2-.57-.36-.89-.46-.49-.16-.99-.24-1.5-.25-.03,0-.06,0-.08,0-.03,0-.06,0-.08.01-.03,0-.05.02-.08.03-.03.01-.05.03-.07.05s-.04.04-.06.06-.03.05-.04.08c-.01.03-.02.05-.02.08,0,.03,0,.06,0,.09v5.33c0,.05,0,.1.02.16s.05.1.08.13c.04.04.08.07.13.09.05.02.1.03.15.02.31,0,.63.03.94.08.55.08,1.06.26,1.54.54.27.16.51.35.73.56ZM11.6,31.46l.05-.04c.48-.47,1.04-.78,1.68-.95.47-.13.95-.19,1.43-.2.03,0,.06,0,.08,0,.03,0,.05,0,.08-.02.03,0,.05-.02.07-.04s.05-.03.06-.05c.02-.02.04-.04.05-.06.01-.02.03-.05.04-.08,0-.03.02-.05.02-.08s0-.05,0-.08v-5.31c0-.05,0-.11-.02-.16-.02-.05-.05-.1-.08-.14-.04-.04-.08-.07-.13-.09s-.1-.03-.16-.02c-.35,0-.69.04-1.03.11-.37.07-.73.19-1.05.38-.33.19-.62.43-.86.72-.08.09-.14.19-.18.3-.04.11-.06.23-.06.35v5.45ZM10.51,31.75c-.04-.06-.09-.11-.15-.15-.47-.36-1-.59-1.59-.68-.33-.06-.67-.09-1-.1-.13,0-.26-.03-.37-.09-.12-.06-.22-.14-.3-.24-.15-.19-.22-.41-.21-.65v-4.24q0-.21-.22-.21s-.05,0-.08,0c-.03,0-.05,0-.08.02-.03,0-.05.02-.07.04-.02.01-.04.03-.06.05-.02.02-.04.04-.05.06-.01.02-.03.05-.04.07,0,.03-.01.05-.02.08,0,.03,0,.05,0,.08v5.65s0,.06,0,.09c0,.03.01.06.02.09s.03.06.04.08c.02.02.04.05.06.07.02.02.05.04.08.05.03.01.06.02.09.03s.06,0,.09,0c.03,0,.06,0,.09-.02.48-.11.97-.18,1.46-.22.58-.05,1.16-.04,1.74.04.17.01.35.05.55.1h.02Z"/><path class="cls-2" d="M16.33,31.57c-.16.27-.24.3-.56.24l-.12-.03c-.91-.2-1.83-.25-2.76-.17-.26.03-.52.07-.78.13,0-.04.03-.05.04-.07.3-.26.63-.45,1.01-.58.52-.18,1.04-.27,1.59-.27.09,0,.18,0,.27-.03.09-.02.17-.06.25-.1s.15-.1.21-.17.11-.14.15-.22c.07-.15.1-.31.09-.48v-4.34c0-.1.03-.13.12-.11.09.01.15,0,.23,0,.07.02.13.05.18.1.05.05.09.11.11.17v5.93Z"/><path class="cls-2" d="M11.04,31.46c-.22-.22-.45-.4-.71-.56-.48-.28-.99-.46-1.54-.54-.31-.05-.62-.08-.94-.08-.05,0-.1,0-.15-.02-.05-.02-.09-.05-.13-.09-.04-.04-.06-.08-.08-.13-.02-.05-.02-.1-.02-.16v-5.33s0-.06,0-.09c0-.03.01-.05.02-.08,0-.03.02-.05.04-.08s.03-.04.06-.06.04-.04.07-.05c.02-.01.05-.02.08-.03.03,0,.06-.01.08-.01.03,0,.06,0,.08,0,.51,0,1.01.09,1.5.25.32.1.62.26.89.46.27.2.5.45.68.73.05.08.08.17.08.26v5.56s-.01.04-.02.06Z"/><path class="cls-2" d="M11.57,31.46v-5.45c0-.12.02-.23.06-.35.04-.11.1-.21.18-.3.24-.29.53-.53.86-.72.33-.19.68-.32,1.05-.38.34-.07.68-.11,1.03-.11.05,0,.11,0,.16.02.05.02.09.05.13.09s.07.08.08.14c.02.05.02.1.02.16v5.31s0,.05,0,.08,0,.05-.02.08c0,.03-.02.05-.04.08-.01.02-.03.05-.05.06-.02.02-.04.04-.06.05s-.05.03-.07.04c-.03,0-.05.02-.08.02-.03,0-.06,0-.08,0-.49,0-.96.07-1.43.2-.65.16-1.21.47-1.69.93l-.05.06Z"/><path class="cls-2" d="M10.48,31.75c-.2-.05-.38-.08-.57-.11-.57-.07-1.14-.09-1.71-.04-.49.04-.98.12-1.46.23-.03,0-.06.02-.09.02-.03,0-.06,0-.09,0s-.06-.01-.09-.03c-.03-.01-.05-.03-.08-.05-.02-.02-.04-.04-.06-.07-.02-.02-.03-.05-.04-.08s-.02-.06-.02-.09c0-.03,0-.06,0-.09v-5.65s0-.06,0-.08c0-.03,0-.05.02-.08,0-.03.02-.05.04-.07.01-.02.03-.05.05-.07.02-.02.04-.04.07-.05s.05-.03.08-.04c.03,0,.05-.01.08-.02.03,0,.06,0,.08,0q.22,0,.22.21v4.24c0,.24.06.46.21.65.08.1.18.19.3.24.12.06.24.09.37.09.34,0,.67.04,1,.1.58.1,1.1.32,1.57.68.06.04.11.09.14.15Z"/><path class="cls-2" d="M43.15,26.74h.8v.5c.11.04.21.1.3.17.09.07.17.15.23.25s.12.2.15.31c.03.11.05.22.05.34h-.77s0-.08-.02-.12c-.01-.04-.04-.07-.06-.11-.03-.03-.06-.06-.1-.08-.04-.02-.08-.03-.12-.04-.04,0-.08,0-.12,0-.04,0-.08.02-.11.05s-.07.05-.09.08c-.03.03-.04.07-.05.11-.01.04-.02.08-.01.12,0,.04.01.08.03.12.02.04.04.07.07.1s.06.05.1.07l.62.33c.09.05.18.11.25.19.08.07.14.16.19.25.05.09.09.19.12.29.03.1.04.21.03.31,0,.11-.02.21-.05.31-.03.1-.08.2-.14.28s-.13.17-.21.23-.17.12-.27.17v.52h-.82v-.47c-.12-.04-.22-.09-.32-.16-.1-.07-.18-.15-.25-.25-.07-.1-.13-.2-.16-.32-.04-.11-.06-.23-.06-.35h.79s0,.08.02.12c.01.04.03.08.06.11s.06.06.09.08.07.04.11.05c.04,0,.08,0,.12,0s.08-.02.12-.04c.04-.02.07-.05.09-.08.03-.03.05-.07.06-.1.01-.04.02-.08.02-.12,0-.04,0-.08-.02-.12-.01-.04-.03-.07-.06-.11-.03-.03-.06-.06-.09-.08l-.64-.34c-.1-.05-.18-.12-.26-.19-.08-.08-.14-.16-.2-.26s-.09-.2-.12-.3-.03-.21-.03-.32c0-.11.03-.22.07-.32.04-.1.09-.2.15-.29s.14-.17.23-.23.18-.12.28-.16v-.51ZM43.85,22.97c-.07,0-.13.02-.18.05l-.33.2c-.09.04-.18.04-.27,0l-.33-.14c-.07-.03-.13-.03-.2,0l-.43.29c-.07.04-.14.05-.22.03l-.23-.06s-.09-.01-.13,0c-.04,0-.08.03-.11.06l-.53.49s-.04.06-.04.1.01.07.04.1l.05.03c.52.23.95.56,1.3,1.01.01.01.02.03.02.05s0,.04-.02.05c-.01,0-.03,0-.04,0h-.2s-.05,0-.07.02c-.02.01-.04.03-.06.04-.02.02-.03.04-.04.06,0,.02-.01.05-.01.07s0,.05.01.07.02.04.04.06.04.03.06.04.05.01.07.01h.09s.03,0,.05.02.02.03.02.05c0,.02,0,.04-.03.05-.36.25-.68.53-.98.85-.3.32-.56.66-.79,1.03-.23.37-.41.76-.56,1.17-.15.41-.25.83-.31,1.26-.02.12-.02.23-.02.35,0,.12.01.23.03.35s.05.23.09.34c.04.11.08.22.14.32.05.1.12.2.19.29.07.09.15.18.23.26.08.08.17.16.27.22.1.07.19.13.3.18.22.11.44.2.67.29.23.08.46.15.7.21.24.06.47.1.71.13.24.03.48.04.72.04s.48-.01.72-.04.48-.07.71-.13c.24-.06.47-.12.7-.21.23-.08.45-.18.67-.29.1-.05.2-.11.3-.18s.18-.14.27-.22c.08-.08.16-.17.23-.26s.13-.19.19-.29c.05-.1.1-.21.14-.32.04-.11.07-.22.09-.34s.03-.23.03-.35c0-.12,0-.23-.02-.35-.06-.43-.17-.85-.31-1.25-.15-.41-.34-.8-.56-1.16-.23-.37-.49-.71-.79-1.02-.3-.31-.63-.59-.98-.84-.01-.01-.02-.03-.02-.05s0-.03.02-.05c.01-.02.03-.03.06-.03h.09s.05,0,.08-.01c.02,0,.05-.02.06-.04.02-.02.03-.04.04-.06,0-.02.01-.05.01-.07s0-.05-.01-.07-.02-.05-.04-.06c-.02-.02-.04-.03-.06-.04-.02,0-.05-.01-.08-.01h-.36s-.03,0-.05-.02c-.01-.01-.02-.03-.02-.05,0,0,0-.02,0-.03.13-.32.31-.61.56-.86.24-.25.52-.45.84-.59.03-.02.06-.04.07-.08.01-.03.01-.07,0-.1-.04-.08-.09-.15-.15-.21-.06-.06-.13-.11-.21-.14-.08-.04-.16-.06-.25-.06-.09,0-.17,0-.26.02l-.43.18c-.09.04-.18.03-.26-.03l-.4-.25c-.07-.04-.14-.06-.22-.06"/></g></svg>