<?xml version="1.0" encoding="UTF-8"?><svg id="Layer_2" xmlns="http://www.w3.org/2000/svg" viewBox="0 0 216.78 52.04"><defs><style>.cls-1{fill:#4c3392;}.cls-2{fill:#fff;}.cls-3{fill:#141045;}.cls-4{fill:#303d36;}</style></defs><g id="Layer_1-2"><rect class="cls-1" width="52.04" height="52.04"/><path class="cls-2" d="M27.01,13.72c-.13,0-.26-.01-.39-.04-.13-.03-.25-.06-.38-.12s-.24-.11-.35-.19c-.11-.07-.21-.16-.3-.25-.09-.09-.18-.19-.25-.3s-.13-.23-.18-.35-.09-.25-.11-.38c-.03-.13-.04-.26-.04-.39s.01-.26.04-.39c.03-.13.06-.25.11-.38s.11-.24.19-.35c.07-.11.16-.21.25-.3s.19-.18.3-.25c.11-.07.23-.14.35-.19s.25-.09.38-.11.26-.04.39-.04.26.01.39.04c.13.03.25.06.38.11s.24.11.35.19c.11.07.21.16.3.25s.18.19.25.3.13.23.19.35c.05.12.09.25.11.38.03.13.04.26.04.39s-.01.26-.04.39c-.03.13-.06.26-.11.38-.05.12-.11.24-.19.35s-.16.21-.25.3c-.09.09-.19.18-.3.25-.11.07-.23.13-.35.18-.12.05-.25.09-.38.11s-.26.04-.39.04ZM31.62,10.78l-.9-.1c-.08-.29-.2-.57-.35-.84l.56-.71s.04-.06.05-.1c.01-.03.01-.07.01-.11,0-.04-.01-.07-.03-.1s-.03-.06-.06-.09l-.94-.92s-.06-.05-.09-.06-.07-.02-.1-.02-.07,0-.11.01-.07.03-.09.05l-.69.56c-.27-.15-.55-.26-.84-.34l-.1-.9s-.01-.07-.03-.1c-.02-.03-.04-.06-.07-.09-.03-.02-.06-.04-.09-.06-.03-.01-.07-.02-.11-.02h-1.29s-.07,0-.11.02c-.03.01-.06.03-.09.06-.03.02-.05.05-.07.09-.02.03-.03.07-.03.1l-.11.9c-.29.08-.57.2-.84.34l-.7-.56s-.06-.04-.09-.05c-.03-.01-.07-.02-.11-.01-.04,0-.07.01-.1.03-.03.01-.06.04-.09.06l-.91.91s-.05.06-.06.09c-.02.03-.02.07-.03.1s0,.07.01.11c.01.03.03.07.05.1l.56.71c-.15.27-.27.55-.35.84l-.88.1s-.07.02-.1.03c-.03.02-.06.04-.09.07-.02.03-.04.06-.06.09s-.02.07-.02.11v1.29s0,.07.02.11c.01.03.03.06.06.09.02.03.05.05.09.07.03.02.07.03.1.03l.9.11c.08.29.2.57.35.84l-.56.71s-.04.06-.05.1c-.01.04-.01.07-.01.11s.01.07.03.1c.01.03.04.06.06.09l.91.91s.06.05.09.06c.03.01.07.02.1.03s.07,0,.11-.01c.03-.01.07-.03.09-.05l.71-.56c.27.15.55.26.84.34l.11.9s.01.07.03.1c.02.03.04.06.07.09.03.02.06.04.09.06s.07.02.11.02h1.26s.07,0,.1-.02.06-.03.09-.05c.03-.02.05-.05.07-.08.02-.03.03-.06.03-.1l.13-.91c.29-.08.57-.2.84-.34l.71.56s.06.04.09.05c.03.01.07.02.11.01.04,0,.07-.01.1-.02.03-.01.06-.03.09-.06l.91-.91s.05-.06.06-.09c.01-.03.02-.07.03-.1,0-.04,0-.07-.01-.11-.01-.03-.03-.07-.05-.1l-.56-.71c.15-.27.27-.55.35-.84l.9-.11s.07-.02.1-.03c.03-.02.06-.04.08-.07s.04-.06.05-.09.02-.07.02-.11v-1.29s0-.07-.02-.11c-.01-.03-.03-.06-.05-.09-.02-.03-.05-.05-.08-.07s-.07-.03-.1-.03"/><path class="cls-2" d="M27.01,38.9c.11,0,.22,0,.33-.02.11-.01.22-.03.33-.05.11-.02.22-.05.32-.08s.21-.07.31-.11c.1-.04.2-.09.3-.14.1-.05.19-.11.29-.17.09-.06.18-.13.27-.2.09-.07.17-.15.25-.22s.15-.16.22-.25c.07-.09.14-.18.2-.27.06-.09.12-.19.17-.29s.1-.2.14-.3c.04-.1.08-.21.11-.31.03-.11.06-.21.08-.32.02-.11.04-.22.05-.33.01-.11.02-.22.02-.33s0-.22-.02-.33c-.01-.11-.03-.22-.05-.33-.02-.11-.05-.22-.08-.32-.03-.11-.07-.21-.11-.31-.04-.1-.09-.2-.14-.3s-.11-.19-.17-.29c-.06-.09-.13-.18-.2-.27-.07-.09-.15-.17-.22-.25-.08-.08-.16-.15-.25-.22-.09-.07-.18-.14-.27-.2-.09-.06-.19-.12-.29-.17s-.2-.1-.3-.14c-.1-.04-.21-.08-.31-.11s-.21-.06-.32-.08c-.11-.02-.22-.04-.33-.05-.11-.01-.22-.02-.33-.02s-.22,0-.33.02c-.11.01-.22.03-.33.05-.11.02-.22.05-.32.08s-.21.07-.31.11-.2.09-.3.14-.19.11-.29.17c-.09.06-.18.13-.27.2-.09.07-.17.15-.25.22-.08.08-.15.16-.22.25s-.14.18-.2.27c-.06.09-.12.19-.17.29s-.1.2-.14.3c-.04.1-.08.21-.11.31s-.06.21-.08.32c-.02.11-.04.22-.05.33-.01.11-.02.22-.02.33s0,.22.02.33c.01.11.03.22.05.33.02.11.05.22.08.32.03.11.07.21.11.31.04.1.09.2.14.3.05.1.11.19.17.29.06.09.13.18.2.27.07.09.15.17.22.25.08.08.16.15.25.22.09.07.18.14.27.2.09.06.19.12.29.17.1.05.2.1.3.14.1.04.21.08.31.11.11.03.21.06.32.08.11.02.22.04.33.05.11.01.22.02.33.02Z"/><path class="cls-2" d="M31.09,38.77s-.06-.04-.09-.05c-.03,0-.07-.01-.1,0-.03,0-.07.01-.1.03-.03.01-.06.04-.08.06-.12.13-.24.26-.37.38s-.26.23-.41.33c-.14.1-.29.2-.44.29-.15.09-.31.17-.47.24-.16.07-.32.14-.49.19-.17.05-.34.1-.51.14s-.34.06-.52.08c-.17.02-.35.03-.53.03s-.35,0-.52-.03c-.17-.02-.35-.05-.52-.08-.17-.04-.34-.08-.51-.14-.17-.06-.33-.12-.49-.19-.16-.07-.32-.15-.47-.24-.15-.09-.3-.19-.44-.29s-.28-.22-.41-.33c-.13-.12-.25-.24-.37-.38-.02-.03-.05-.05-.08-.06-.03-.02-.06-.02-.1-.03-.03,0-.07,0-.1,0-.03,0-.06.02-.09.05-.39.31-.73.65-1.04,1.04-.31.38-.57.8-.78,1.24-.21.44-.37.9-.48,1.38s-.16.97-.16,1.46v1.05s0,.07.02.1c.01.03.03.06.06.08s.05.04.08.06c.03.01.07.02.1.02h12.59s.07,0,.1-.02c.03-.01.06-.03.08-.06s.04-.05.06-.08c.01-.03.02-.07.02-.1v-1.05c0-.49-.06-.98-.17-1.46-.11-.48-.27-.94-.49-1.39-.22-.44-.48-.86-.79-1.24s-.66-.73-1.04-1.03Z"/><path class="cls-2" d="M13.22,18.58s-.04-.04-.06-.05c-.02-.01-.05-.02-.08-.03-.03,0-.05,0-.08,0-.03,0-.05.02-.07.04-.02.02-.04.04-.05.06-.17.31-.34.62-.49.94-.01.03-.02.05-.02.08,0,.03,0,.05.01.08s.02.05.04.07c.02.02.04.04.07.05.03.01.05.02.08.02.03,0,.05,0,.08-.01.03,0,.05-.02.07-.04.02-.02.04-.04.05-.07.15-.31.3-.62.47-.92.01-.02.02-.05.03-.08,0-.03,0-.05,0-.08,0-.03-.02-.05-.04-.07Z"/><path class="cls-2" d="M12.35,20.37s-.04-.03-.07-.04c-.03-.01-.05-.01-.08-.01-.03,0-.05,0-.08.02-.03.01-.05.03-.07.05-.02.02-.03.04-.04.07l-.16.41-.27.68s-.01.05-.01.08c0,.03,0,.05.02.08.01.03.03.05.05.07.02.02.04.03.07.04.03.01.05.01.08.01.03,0,.05,0,.08-.02.03-.01.05-.03.07-.05.02-.02.03-.04.04-.07l.27-.68.16-.41s.02-.05.01-.08c0-.03,0-.05-.02-.08-.01-.03-.03-.05-.05-.07Z"/><path class="cls-2" d="M15.84,15.27s-.04-.04-.07-.05c-.03-.01-.05-.02-.08-.02-.03,0-.05,0-.08.01-.03,0-.05.02-.07.04-.27.24-.52.49-.77.75-.02.02-.03.04-.04.07,0,.03-.01.05-.01.08,0,.03,0,.05.02.08.01.03.03.05.05.07.02.02.04.03.07.04.03.01.05.01.08.01.03,0,.05,0,.08-.02.03-.01.05-.03.07-.05.24-.25.49-.5.74-.73.02-.02.04-.04.05-.07.01-.03.02-.05.02-.08,0-.03,0-.05-.01-.08,0-.03-.02-.05-.04-.07Z"/><path class="cls-2" d="M14.37,16.79s-.05-.03-.07-.04c-.03,0-.05-.01-.08,0-.03,0-.05.01-.08.03-.02.01-.05.03-.06.05-.22.28-.44.57-.64.87-.02.02-.03.05-.03.08,0,.03,0,.05,0,.08,0,.03.02.05.03.08.02.02.03.04.06.06.02.02.05.03.08.03.03,0,.05,0,.08,0,.03,0,.05-.02.08-.03.02-.02.04-.03.06-.06.19-.29.4-.57.62-.84.02-.02.03-.05.04-.07s.01-.05,0-.08c0-.03-.01-.05-.03-.08-.01-.02-.03-.05-.05-.06Z"/><path class="cls-2" d="M17.63,13.56l-1.68.31v.03l.78.39c-.12.09-.25.18-.37.27-.02.02-.04.04-.05.06-.01.02-.02.05-.03.08,0,.03,0,.05,0,.08,0,.03.02.05.04.07.02.02.04.04.06.05.02.01.05.02.08.03.03,0,.05,0,.08,0s.05-.02.07-.04c.1-.08.21-.16.32-.24v.89h.04l1.02-1.39,1.23-1.2-1.6.59Z"/><path class="cls-2" d="M37.32,14.96c-.27-.24-.54-.46-.82-.68-.02-.02-.05-.03-.07-.04s-.05,0-.08,0c-.03,0-.05.01-.08.03-.02.01-.04.03-.06.05-.02.02-.03.05-.04.07,0,.03,0,.05,0,.08,0,.03.01.05.03.08.01.02.03.04.05.06.27.21.54.43.8.66.02.02.04.03.07.04.03,0,.05.01.08.01.03,0,.05,0,.08-.02.03-.01.05-.03.06-.05.02-.02.03-.04.04-.07s.01-.05.01-.08c0-.03,0-.05-.02-.08-.01-.03-.03-.05-.05-.06Z"/><path class="cls-2" d="M35.63,13.66c-.28-.19-.57-.37-.86-.54-.02-.01-.05-.02-.08-.03-.03,0-.05,0-.08,0-.03,0-.05.02-.07.04-.02.02-.04.04-.05.06-.01.02-.02.05-.03.08,0,.03,0,.05,0,.08,0,.03.02.05.04.07.02.02.04.04.06.05.28.17.56.34.84.53.02.02.05.03.08.03.03,0,.05,0,.08,0,.03,0,.05-.02.08-.03.02-.02.04-.03.06-.06.02-.02.03-.05.03-.08,0-.03,0-.05,0-.08,0-.03-.02-.05-.03-.08-.02-.02-.03-.04-.06-.06Z"/><path class="cls-2" d="M38.74,16.82s.05-.02.07-.04c.02-.02.04-.04.05-.06s.02-.05.02-.08c0-.03,0-.05-.01-.08,0-.03-.02-.05-.04-.07-.23-.27-.48-.53-.73-.78-.02-.02-.04-.03-.07-.05-.03-.01-.05-.02-.08-.02s-.05,0-.08.02c-.03.01-.05.03-.07.05s-.04.04-.05.07c-.01.03-.02.05-.02.08s0,.05.02.08c.01.03.03.05.05.07.25.25.48.5.71.76.02.02.04.04.06.05.03.01.05.02.08.02.03,0,.05,0,.08-.01Z"/><path class="cls-2" d="M40.47,18.56l-.24-1.57-.03-.02-.4.74c-.1-.14-.2-.27-.3-.4-.02-.02-.04-.04-.06-.05-.02-.01-.05-.02-.08-.03-.03,0-.05,0-.08,0-.03,0-.05.02-.07.04s-.04.04-.05.06c-.01.02-.02.05-.03.08,0,.03,0,.05,0,.08s.02.05.04.07c.09.11.17.24.25.35h-.79v.04l1.26.98,1.08,1.16-.49-1.52Z"/><path class="cls-2" d="M38.8,37.36s-.04-.03-.07-.04c-.03,0-.05-.01-.08-.01-.03,0-.05,0-.08.02-.02.01-.05.03-.06.05-.23.26-.46.52-.71.76-.02.02-.03.04-.05.07-.01.03-.02.05-.02.08s0,.05.02.08c.01.03.03.05.05.07s.04.03.07.05c.03.01.05.02.08.02s.05,0,.08-.02c.03-.01.05-.03.07-.05.25-.25.49-.51.73-.78.02-.02.03-.04.04-.07,0-.03.01-.05.01-.08,0-.03,0-.05-.02-.08-.01-.03-.03-.05-.05-.06Z"/><path class="cls-2" d="M37.32,39.17s.04-.04.05-.06c.01-.03.02-.05.02-.08,0-.03,0-.05-.01-.08,0-.03-.02-.05-.04-.07-.02-.02-.04-.04-.06-.05-.03-.01-.05-.02-.08-.02-.03,0-.05,0-.08.01-.03,0-.05.02-.07.04-.11.1-.22.18-.33.27l-.05-.79h-.03l-.89,1.32-1.07,1.16,1.46-.6,1.55-.36v-.03l-.76-.34c.13-.11.26-.21.39-.32Z"/><path class="cls-2" d="M40.11,35.73s-.03-.04-.06-.06c-.02-.02-.05-.03-.08-.03-.03,0-.05,0-.08,0-.03,0-.05.02-.08.03-.02.02-.04.04-.06.06-.19.29-.39.57-.6.85-.02.02-.03.05-.04.07s0,.05,0,.08c0,.03.01.05.03.08.01.02.03.04.05.06.02.02.05.03.07.04.03,0,.05,0,.08,0,.03,0,.05-.01.08-.03.02-.01.04-.03.06-.05.22-.28.42-.57.62-.87.01-.02.03-.05.03-.08,0-.03,0-.05,0-.08,0-.03-.02-.05-.03-.08Z"/><path class="cls-2" d="M41.04,34.24s-.02-.05-.04-.07c-.02-.02-.04-.04-.06-.05-.03-.01-.05-.02-.08-.02-.03,0-.05,0-.08,0-.03,0-.05.02-.07.04-.02.02-.04.04-.05.06-.11.22-.23.43-.35.64-.01.02-.02.05-.03.08,0,.03,0,.05,0,.08,0,.03.02.05.04.07.02.02.04.04.06.05.02.01.05.02.08.03.03,0,.05,0,.08,0s.05-.02.07-.04c.02-.02.04-.04.05-.06.12-.22.24-.43.36-.66.01-.02.02-.05.02-.08,0-.03,0-.05,0-.08Z"/><path class="cls-2" d="M16.31,38.89c-.27-.22-.53-.45-.78-.69-.02-.02-.04-.03-.07-.04-.03,0-.05-.01-.08-.01-.03,0-.05,0-.08.02-.03.01-.05.03-.07.05s-.03.04-.04.07c-.01.03-.01.05-.01.08,0,.03,0,.05.02.08.01.03.03.05.05.07.26.24.53.48.8.71.02.02.05.03.07.04.03,0,.05.01.08,0,.03,0,.05-.01.08-.02.02-.01.05-.03.06-.05.02-.02.03-.05.04-.07,0-.03.01-.05,0-.08,0-.03-.01-.05-.02-.08-.01-.02-.03-.05-.05-.06Z"/><path class="cls-2" d="M14.79,37.46c-.24-.25-.47-.51-.7-.78-.02-.02-.04-.04-.06-.05-.02-.01-.05-.02-.08-.02-.03,0-.05,0-.08,0-.03,0-.05.02-.07.04-.02.02-.04.04-.05.06-.01.02-.02.05-.02.08,0,.03,0,.05,0,.08,0,.03.02.05.04.07.23.27.47.53.71.79.02.02.04.04.07.05.03.01.05.02.08.02.03,0,.05,0,.08-.01.03-.01.05-.02.07-.04.02-.02.04-.04.05-.07.01-.03.02-.05.02-.08,0-.03,0-.05-.01-.08-.01-.03-.02-.05-.04-.07Z"/><path class="cls-2" d="M13.44,35.88c-.08-.11-.16-.22-.24-.33l.77.04v-.04l-1.2-1.02-1.05-1.2c.15.51.29,1.02.42,1.53l.21,1.58h.03l.42-.72c.1.14.19.28.3.42.02.02.04.04.06.05.02.01.05.02.08.03.03,0,.05,0,.08,0,.03,0,.05-.02.07-.04.02-.02.04-.04.05-.06.01-.02.02-.05.03-.08,0-.03,0-.05,0-.08s-.02-.05-.04-.07Z"/><path class="cls-2" d="M19.58,41.15s-.02-.05-.04-.07c-.02-.02-.04-.04-.06-.05-.21-.11-.41-.23-.61-.34-.02-.01-.05-.02-.08-.03-.03,0-.05,0-.08,0s-.05.02-.07.04c-.02.02-.04.04-.05.06-.01.02-.02.05-.03.08,0,.03,0,.05,0,.08,0,.03.02.05.04.07.02.02.04.04.06.05.21.12.42.24.63.35.02.01.05.02.08.02.03,0,.05,0,.08,0,.03,0,.05-.02.07-.04s.04-.04.05-.06c.01-.02.02-.05.02-.08,0-.03,0-.05,0-.08Z"/><path class="cls-2" d="M18.04,40.19s-.04-.04-.06-.06c-.29-.19-.57-.39-.85-.6-.02-.02-.05-.03-.07-.04-.03,0-.05,0-.08,0-.03,0-.05.01-.08.03-.02.01-.04.03-.06.05-.02.02-.03.05-.04.07,0,.03,0,.05,0,.08,0,.03.01.05.03.08.01.02.03.04.05.06.28.21.57.42.87.61.02.02.05.03.08.03.03,0,.05,0,.08,0,.03,0,.05-.02.08-.03.02-.02.04-.04.06-.06.01-.02.03-.05.03-.08,0-.03,0-.05,0-.08,0-.03-.02-.05-.03-.08Z"/><path class="cls-2" d="M10.67,30.42s0-.04,0-.05v-5.38c0-.09-.02-.18-.08-.25-.18-.27-.4-.51-.66-.71-.26-.2-.55-.35-.86-.44-.47-.16-.96-.24-1.45-.24-.03,0-.05,0-.08,0-.03,0-.05,0-.08.01-.03,0-.05.02-.08.03-.02.01-.05.03-.07.05s-.04.04-.05.06-.03.05-.04.07c-.01.03-.02.05-.02.08,0,.03,0,.05,0,.08v5.16c0,.05,0,.1.02.15s.04.09.08.13c.04.04.08.06.13.08.05.02.1.03.15.02.3,0,.61.03.91.08.53.08,1.02.25,1.49.52.26.15.49.34.71.55ZM11.21,30.42l.05-.04c.46-.45,1-.76,1.63-.92.45-.12.92-.18,1.38-.19.03,0,.05,0,.08,0,.03,0,.05,0,.08-.02.03,0,.05-.02.07-.04s.04-.03.06-.05c.02-.02.04-.04.05-.06.01-.02.03-.05.03-.07,0-.03.01-.05.02-.08s0-.05,0-.08v-5.14c0-.05,0-.1-.02-.15-.02-.05-.04-.09-.08-.13-.04-.04-.08-.07-.13-.08s-.1-.03-.15-.02c-.34,0-.67.04-1,.1-.36.06-.7.19-1.02.37-.32.18-.6.42-.83.7-.08.09-.14.18-.18.29-.04.11-.06.22-.06.34v5.27ZM10.16,30.7c-.04-.06-.08-.11-.14-.14-.46-.35-.97-.57-1.54-.66-.32-.06-.64-.09-.97-.1-.13,0-.25-.03-.36-.09-.11-.06-.21-.14-.29-.24-.15-.18-.21-.39-.21-.63v-4.1q0-.2-.21-.2s-.05,0-.08,0c-.03,0-.05,0-.08.02-.03,0-.05.02-.07.03-.02.01-.04.03-.06.05-.02.02-.04.04-.05.06-.01.02-.03.05-.03.07,0,.03-.01.05-.02.08,0,.03,0,.05,0,.08v5.46s0,.06,0,.09c0,.03.01.06.02.09s.03.05.04.08c.02.02.04.05.06.06.02.02.05.03.08.05.03.01.06.02.08.03s.06,0,.09,0c.03,0,.06,0,.09-.02.47-.1.94-.17,1.41-.21.56-.05,1.12-.04,1.68.04.16.01.34.05.53.09h.02Z"/><path class="cls-2" d="M15.79,30.53c-.16.26-.24.29-.54.23l-.11-.03c-.88-.19-1.77-.24-2.67-.16-.25.03-.5.07-.75.13,0-.04.03-.05.04-.07.29-.25.61-.44.97-.56.5-.17,1.01-.26,1.54-.26.09,0,.17,0,.26-.03.08-.02.16-.05.24-.1s.14-.1.2-.16.11-.14.14-.21c.07-.15.1-.3.09-.46v-4.2c0-.1.03-.12.11-.11.09.01.15,0,.22,0,.06.02.12.05.17.09.05.05.08.1.1.17v5.73Z"/><path class="cls-2" d="M10.67,30.42c-.21-.21-.44-.39-.69-.55-.46-.27-.96-.44-1.49-.52-.3-.05-.6-.08-.91-.08-.05,0-.1,0-.15-.02-.05-.02-.09-.05-.13-.08-.04-.04-.06-.08-.08-.13-.02-.05-.02-.1-.02-.15v-5.16s0-.05,0-.08c0-.03.01-.05.02-.08,0-.03.02-.05.04-.07s.03-.04.05-.06.04-.03.07-.05c.02-.01.05-.02.08-.03.03,0,.05-.01.08-.01.03,0,.05,0,.08,0,.5,0,.98.08,1.45.24.31.1.6.25.86.44.26.2.48.43.66.71.05.08.08.16.08.25v5.38s-.01.04-.02.05Z"/><path class="cls-2" d="M11.19,30.42v-5.27c0-.12.02-.23.06-.34.04-.11.1-.21.18-.29.24-.28.51-.52.83-.7.32-.18.66-.31,1.02-.37.33-.07.66-.1,1-.1.05,0,.1,0,.15.02.05.02.09.05.13.08s.06.08.08.13c.02.05.02.1.02.15v5.14s0,.05,0,.08,0,.05-.02.08c0,.03-.02.05-.03.07-.01.02-.03.04-.05.06-.02.02-.04.04-.06.05s-.05.03-.07.04c-.03,0-.05.02-.08.02-.03,0-.05,0-.08,0-.47,0-.93.07-1.38.19-.63.15-1.17.45-1.63.9l-.05.05Z"/><path class="cls-2" d="M10.14,30.7c-.19-.05-.37-.08-.55-.1-.55-.07-1.1-.08-1.66-.04-.48.04-.95.12-1.41.22-.03,0-.06.02-.09.02-.03,0-.06,0-.09,0s-.06-.01-.08-.03c-.03-.01-.05-.03-.08-.05-.02-.02-.04-.04-.06-.06-.02-.02-.03-.05-.04-.08s-.02-.06-.02-.09c0-.03,0-.06,0-.09v-5.46s0-.05,0-.08c0-.03,0-.05.02-.08,0-.03.02-.05.03-.07.01-.02.03-.04.05-.06.02-.02.04-.04.06-.05s.05-.03.07-.03c.03,0,.05-.01.08-.02.03,0,.05,0,.08,0q.21,0,.21.2v4.1c0,.23.06.44.21.63.08.1.17.18.29.24.11.06.23.09.36.09.33,0,.65.04.97.1.56.09,1.06.31,1.51.66.06.04.1.08.14.14Z"/><path class="cls-2" d="M41.73,25.86h.78v.48c.1.04.2.09.29.16.09.07.16.15.23.24s.11.19.14.3c.03.11.05.22.05.33h-.75s0-.08-.02-.12c-.01-.04-.03-.07-.06-.1-.03-.03-.06-.06-.09-.08-.04-.02-.07-.03-.11-.04-.04,0-.08,0-.12,0-.04,0-.08.02-.11.05s-.06.05-.09.08c-.02.03-.04.07-.05.11-.01.04-.02.08-.01.12,0,.04.01.08.03.12.02.04.04.07.07.1s.06.05.1.07l.6.32c.09.05.17.11.25.18.07.07.14.15.19.24.05.09.09.18.11.28.03.1.04.2.03.3,0,.1-.02.2-.05.3-.03.1-.08.19-.13.27s-.13.16-.2.23-.17.12-.26.16v.5h-.79v-.46c-.11-.04-.21-.09-.31-.16-.09-.07-.18-.15-.24-.24-.07-.09-.12-.2-.16-.31-.04-.11-.05-.22-.05-.34h.76s0,.08.02.12c.01.04.03.07.06.1s.05.06.09.08.07.04.11.04c.04,0,.08,0,.12,0s.08-.02.11-.04c.03-.02.06-.04.09-.07.03-.03.05-.06.06-.1.01-.04.02-.08.02-.12,0-.04,0-.08-.02-.12-.01-.04-.03-.07-.06-.1-.03-.03-.06-.06-.09-.08l-.62-.33c-.09-.05-.18-.11-.25-.19-.08-.07-.14-.16-.19-.25s-.09-.19-.11-.29-.03-.21-.03-.31c0-.11.03-.21.06-.31.04-.1.09-.19.15-.28s.14-.16.22-.22.18-.11.27-.15v-.5ZM42.41,22.21c-.06,0-.12.02-.18.05l-.32.2c-.09.04-.17.04-.26,0l-.32-.14c-.06-.03-.13-.03-.19,0l-.42.28c-.07.04-.14.05-.21.03l-.22-.06s-.08-.01-.12,0c-.04,0-.08.03-.11.06l-.51.47s-.04.06-.04.09.01.07.04.09l.05.03c.5.22.92.54,1.26.97.01.01.02.03.02.05s0,.03-.02.05c-.01,0-.03,0-.04,0h-.19s-.05,0-.07.02c-.02.01-.04.02-.06.04-.02.02-.03.04-.04.06,0,.02-.01.05-.01.07s0,.05.01.07.02.04.04.06.04.03.06.04.05.01.07.01h.09s.03,0,.04.02.02.03.02.05c0,.02,0,.04-.03.05-.35.24-.66.51-.95.82-.29.31-.54.64-.76,1-.22.36-.4.74-.54,1.13-.14.4-.24.8-.3,1.22-.02.11-.02.22-.02.34,0,.11.01.22.03.34s.05.22.08.33c.04.11.08.21.13.31.05.1.11.19.18.28.07.09.14.17.22.25.08.08.17.15.26.22.09.06.19.12.29.17.21.1.42.2.65.28.22.08.44.15.67.2.23.05.46.09.69.12.23.03.47.04.7.04s.47-.01.7-.04.46-.07.69-.12c.23-.05.45-.12.67-.2.22-.08.44-.17.65-.28.1-.05.2-.11.29-.17s.18-.14.26-.22c.08-.08.16-.16.22-.25s.13-.18.18-.28c.05-.1.1-.2.13-.31.04-.11.06-.22.08-.33s.03-.22.03-.34c0-.11,0-.22-.02-.34-.06-.41-.16-.82-.3-1.21-.14-.39-.32-.77-.54-1.13-.22-.36-.48-.69-.76-.99-.29-.3-.61-.57-.95-.81-.01-.01-.02-.03-.02-.04s0-.03.02-.04c.01-.02.03-.03.05-.03h.08s.05,0,.07-.01c.02,0,.04-.02.06-.04.02-.02.03-.04.04-.06,0-.02.01-.05.01-.07s0-.05-.01-.07-.02-.04-.04-.06c-.02-.02-.04-.03-.06-.04-.02,0-.05-.01-.07-.01h-.35s-.03,0-.05-.02c-.01-.01-.02-.03-.02-.05,0,0,0-.02,0-.03.12-.31.3-.59.54-.83.23-.24.5-.43.81-.57.03-.02.05-.04.07-.07.01-.03.01-.07,0-.1-.04-.08-.09-.14-.15-.2-.06-.06-.13-.1-.21-.14-.08-.03-.16-.06-.24-.06-.08,0-.17,0-.25.02l-.42.18c-.09.04-.18.03-.26-.03l-.39-.24c-.07-.04-.14-.06-.21-.06"/><path class="cls-4" d="M66.78,33.95l-.19.9h-4.33l-.71,3.35h3.9l-.19.9h-3.89l-.87,4.06h-1.08l1.96-9.21h5.41ZM66.37,43.16l1.47-6.95h.98l-.23,1.09.13.04c.25-.42.55-.72.87-.91.33-.18.73-.28,1.2-.28.24,0,.45.02.6.07.16.04.3.1.41.19l-.42.9-.13.03c-.23-.15-.51-.23-.85-.23-1.15,0-1.91.88-2.29,2.65l-.72,3.41h-1.03ZM74.36,43.29c-.54,0-1.01-.1-1.4-.31-.39-.21-.7-.51-.91-.9-.21-.39-.32-.85-.32-1.4,0-.31.04-.65.11-1,.25-1.18.71-2.07,1.38-2.69.67-.61,1.52-.92,2.56-.92.54,0,1,.1,1.4.31.4.21.71.51.92.9.21.39.32.86.32,1.4,0,.31-.04.64-.12.99-.25,1.17-.7,2.07-1.38,2.68-.67.61-1.52.92-2.56.92ZM74.5,42.38c.69,0,1.27-.22,1.73-.66.46-.44.79-1.11.98-2.03.07-.35.11-.65.11-.91,0-.59-.15-1.03-.45-1.33-.3-.3-.71-.45-1.22-.45-.69,0-1.27.22-1.73.66-.46.44-.79,1.12-.99,2.03-.07.35-.11.65-.11.91,0,.59.15,1.04.45,1.34.3.3.72.44,1.23.44ZM79.53,43.16l1.47-6.95h.98l-.22,1.03.13.03c.21-.38.52-.67.92-.88.4-.2.84-.31,1.32-.31.52,0,.91.11,1.17.33s.45.54.56.96h.13c.34-.43.69-.75,1.06-.96.38-.22.82-.33,1.33-.33.56,0,.99.15,1.3.44.31.29.46.7.46,1.22,0,.22-.03.44-.08.68l-1,4.74h-1.03l1-4.71c.03-.18.05-.33.05-.46,0-.33-.09-.58-.28-.75-.19-.18-.47-.27-.85-.27-.55,0-1.03.2-1.46.6-.42.4-.73,1.06-.93,1.99l-.77,3.59h-1.02l1-4.71c.03-.18.05-.33.05-.46,0-.33-.09-.58-.28-.75-.19-.18-.47-.27-.84-.27-.55,0-1.04.2-1.46.59-.42.39-.72,1.02-.91,1.9l-.78,3.7h-1.03ZM97.76,33.95l-1.76,8.32h4.44l-.19.9h-5.52l1.96-9.21h1.08ZM108.13,38.28c-.12.61-.46,1.11-1.03,1.49-.57.38-1.38.56-2.42.56-.5,0-1.02-.04-1.56-.13-.02.13-.03.27-.03.42,0,.57.14,1,.43,1.3.29.3.71.45,1.26.45.49,0,.89-.09,1.22-.27.33-.18.62-.47.87-.86h.13l.64.43c-.3.54-.7.94-1.19,1.21-.49.27-1.12.4-1.86.4-.5,0-.95-.11-1.33-.34-.38-.23-.67-.56-.88-.99-.21-.43-.31-.92-.31-1.49,0-.35.04-.71.12-1.08.15-.71.4-1.31.75-1.8.35-.5.78-.87,1.29-1.12.5-.25,1.06-.38,1.67-.38.5,0,.92.08,1.26.25.34.17.6.39.77.67.17.28.25.58.25.91,0,.12-.01.24-.04.37ZM105.71,36.95c-.61,0-1.12.19-1.52.57-.39.38-.7.98-.91,1.82.49.05.93.08,1.31.08.82,0,1.43-.11,1.83-.32.4-.21.64-.52.71-.91.01-.07.02-.15.02-.22,0-.31-.13-.56-.38-.74-.25-.18-.6-.28-1.06-.28ZM111.73,43.29c-.42,0-.81-.09-1.15-.28-.35-.19-.62-.48-.83-.87-.21-.39-.31-.87-.31-1.45,0-.39.04-.78.13-1.18.24-1.14.67-1.99,1.29-2.57.62-.58,1.42-.87,2.4-.87.45,0,.85.1,1.2.31.35.21.6.5.74.88l.14-.03.23-1.03h1.03l-1.48,6.95h-1.03l.22-1.01-.13-.03c-.25.38-.57.67-.98.87-.41.2-.9.3-1.46.3ZM112.12,42.38c.65,0,1.21-.22,1.69-.67.48-.44.82-1.12,1.01-2.02.06-.31.1-.59.1-.85,0-.58-.15-1.03-.44-1.36-.3-.32-.7-.48-1.2-.48-1.39,0-2.28.9-2.66,2.69-.06.28-.1.57-.1.86,0,.39.07.72.2.99.13.28.32.48.56.62s.52.21.84.21ZM117.54,43.16l1.47-6.95h.98l-.23,1.09.13.04c.25-.42.55-.72.87-.91.33-.18.73-.28,1.2-.28.24,0,.45.02.6.07.16.04.3.1.41.19l-.42.9-.13.03c-.23-.15-.51-.23-.85-.23-1.15,0-1.91.88-2.29,2.65l-.72,3.41h-1.03ZM122.9,43.16l1.47-6.95h.98l-.23,1.09.13.04c.52-.84,1.3-1.25,2.34-1.25.64,0,1.14.17,1.49.5.36.33.53.8.53,1.39,0,.22-.03.46-.08.71l-.94,4.48h-1.03l.94-4.45c.04-.19.07-.37.07-.54,0-.39-.12-.69-.35-.89s-.58-.3-1.03-.3c-.6,0-1.13.21-1.56.62-.43.41-.75,1.08-.94,2l-.76,3.57h-1.03ZM133.33,34.87c-.22,0-.4-.07-.53-.2-.13-.14-.2-.31-.2-.52s.07-.38.2-.52c.14-.14.31-.21.53-.21s.39.07.53.21c.14.14.21.31.21.52s-.07.39-.21.52-.31.2-.53.2ZM130.9,43.16l1.47-6.95h1.03l-1.48,6.95h-1.02ZM134.35,43.16l1.47-6.95h.98l-.23,1.09.13.04c.52-.84,1.3-1.25,2.34-1.25.64,0,1.14.17,1.49.5.36.33.53.8.53,1.39,0,.22-.03.46-.08.71l-.94,4.48h-1.03l.94-4.45c.04-.19.07-.37.07-.54,0-.39-.12-.69-.35-.89s-.58-.3-1.03-.3c-.6,0-1.13.21-1.56.62-.43.41-.75,1.08-.94,2l-.76,3.57h-1.03ZM144.09,46.11c-.59,0-1.09-.07-1.5-.22-.41-.14-.72-.35-.93-.61-.21-.26-.32-.57-.32-.92,0-.1.01-.23.04-.38.07-.33.26-.61.55-.84.29-.22.67-.39,1.13-.49l.04-.13c-.15-.1-.27-.21-.35-.34-.08-.13-.12-.28-.12-.47,0-.1.01-.21.04-.34.09-.47.49-.77,1.2-.89l.03-.13c-.51-.31-.77-.78-.77-1.41,0-.2.03-.42.08-.67.09-.42.27-.8.52-1.13.25-.33.59-.59,1.01-.79.42-.19.91-.29,1.47-.29s1.04.13,1.38.38c.18-.16.33-.34.44-.52.11-.18.21-.4.28-.64l.15-.08.8.2c-.12.4-.28.72-.5.96-.21.24-.49.42-.83.53l-.03.14c.25.24.38.55.38.92,0,.14-.02.32-.06.52-.09.44-.28.83-.57,1.18-.29.35-.64.62-1.06.82-.42.2-.89.3-1.39.3-.06,0-.16,0-.31-.01-.17-.01-.29-.02-.37-.02-.26,0-.46.07-.62.2-.16.13-.24.31-.24.52,0,.17.07.3.2.39.14.09.33.15.58.16l1.51.08c.6.03,1.06.18,1.37.43.31.26.47.61.47,1.06,0,.15-.02.31-.06.48-.09.44-.27.8-.52,1.09-.25.29-.62.51-1.13.67-.5.16-1.17.24-2,.24ZM145.39,39.92c.49,0,.9-.13,1.22-.38.32-.25.53-.61.63-1.08.03-.17.05-.31.05-.43,0-.34-.11-.6-.33-.79-.22-.18-.53-.28-.94-.28-.5,0-.9.13-1.22.39-.31.26-.52.63-.63,1.11-.03.16-.05.3-.05.42,0,.34.11.59.32.78.21.18.53.27.95.27ZM144.09,45.23c.52,0,.97-.05,1.35-.15.38-.1.67-.24.87-.41.21-.18.34-.37.38-.59.02-.08.03-.18.03-.28,0-.21-.08-.37-.24-.48-.15-.11-.41-.18-.77-.2l-1.54-.11s-.08-.01-.12-.02c-.04,0-.08-.01-.12-.01-.45,0-.8.1-1.04.28-.24.18-.4.44-.46.76-.02.07-.03.14-.03.22,0,.32.15.56.45.73.3.17.72.26,1.23.26ZM155.27,37.05l-.88,4.13c-.03.14-.05.28-.05.4,0,.27.07.47.22.6.15.13.35.19.61.19.37,0,.71-.11,1.01-.32h.13l.21.74c-.39.33-.92.5-1.58.5-.51,0-.91-.14-1.2-.41-.29-.28-.44-.66-.44-1.15,0-.19.02-.38.06-.58l.87-4.1h-1.21l.18-.84h1.21l.31-1.47,1.07-.17-.35,1.64h2.24l-.19.84h-2.23ZM160.65,43.29c-.54,0-1.01-.1-1.4-.31-.39-.21-.7-.51-.91-.9-.21-.39-.32-.85-.32-1.4,0-.31.04-.65.11-1,.25-1.18.71-2.07,1.38-2.69.67-.61,1.52-.92,2.56-.92.54,0,1,.1,1.4.31.4.21.71.51.92.9.21.39.32.86.32,1.4,0,.31-.04.64-.12.99-.25,1.17-.7,2.07-1.38,2.68-.67.61-1.52.92-2.56.92ZM160.78,42.38c.69,0,1.27-.22,1.73-.66.46-.44.79-1.11.98-2.03.07-.35.11-.65.11-.91,0-.59-.15-1.03-.45-1.33-.3-.3-.71-.45-1.22-.45-.69,0-1.27.22-1.73.66-.46.44-.79,1.12-.99,2.03-.07.35-.11.65-.11.91,0,.59.15,1.04.45,1.34.3.3.72.44,1.23.44ZM176.79,33.95l-.19.9h-4.6l-.66,3.08h4.05l-.19.9h-4.05l-.73,3.44h4.69l-.19.9h-5.78l1.96-9.21h5.67ZM179.25,43.29c-.42,0-.81-.09-1.15-.28-.35-.19-.62-.48-.83-.87-.21-.39-.31-.87-.31-1.45,0-.39.04-.78.13-1.18.24-1.14.67-1.99,1.29-2.57.62-.58,1.42-.87,2.4-.87.45,0,.85.1,1.2.31.35.21.6.5.74.88l.14-.03.23-1.03h1.03l-1.48,6.95h-1.03l.22-1.01-.13-.03c-.25.38-.57.67-.98.87-.41.2-.9.3-1.46.3ZM179.63,42.38c.65,0,1.21-.22,1.69-.67.48-.44.82-1.12,1.01-2.02.06-.31.1-.59.1-.85,0-.58-.15-1.03-.44-1.36-.3-.32-.7-.48-1.2-.48-1.39,0-2.28.9-2.66,2.69-.06.28-.1.57-.1.86,0,.39.07.72.2.99.13.28.32.48.56.62s.52.21.84.21ZM185.05,43.16l1.47-6.95h.98l-.23,1.09.13.04c.25-.42.55-.72.87-.91.33-.18.73-.28,1.2-.28.24,0,.45.02.6.07.16.04.3.1.41.19l-.42.9-.13.03c-.23-.15-.51-.23-.85-.23-1.15,0-1.91.88-2.29,2.65l-.72,3.41h-1.03ZM190.42,43.16l1.47-6.95h.98l-.23,1.09.13.04c.52-.84,1.3-1.25,2.34-1.25.64,0,1.14.17,1.49.5.36.33.53.8.53,1.39,0,.22-.03.46-.08.71l-.94,4.48h-1.03l.94-4.45c.04-.19.07-.37.07-.54,0-.39-.12-.69-.35-.89s-.58-.3-1.03-.3c-.6,0-1.13.21-1.56.62-.43.41-.75,1.08-.94,2l-.76,3.57h-1.03ZM200.84,34.87c-.22,0-.4-.07-.53-.2-.13-.14-.2-.31-.2-.52s.07-.38.2-.52c.14-.14.31-.21.53-.21s.39.07.53.21c.14.14.21.31.21.52s-.07.39-.21.52-.31.2-.53.2ZM198.41,43.16l1.47-6.95h1.03l-1.48,6.95h-1.02ZM201.86,43.16l1.47-6.95h.98l-.23,1.09.13.04c.52-.84,1.3-1.25,2.34-1.25.64,0,1.14.17,1.49.5.36.33.53.8.53,1.39,0,.22-.03.46-.08.71l-.94,4.48h-1.03l.94-4.45c.04-.19.07-.37.07-.54,0-.39-.12-.69-.35-.89s-.58-.3-1.03-.3c-.6,0-1.13.21-1.56.62-.43.41-.75,1.08-.94,2l-.76,3.57h-1.03ZM211.6,46.11c-.59,0-1.09-.07-1.5-.22-.41-.14-.72-.35-.93-.61-.21-.26-.32-.57-.32-.92,0-.1.01-.23.04-.38.07-.33.26-.61.55-.84.29-.22.67-.39,1.13-.49l.04-.13c-.15-.1-.27-.21-.35-.34-.08-.13-.12-.28-.12-.47,0-.1.01-.21.04-.34.09-.47.49-.77,1.2-.89l.03-.13c-.51-.31-.77-.78-.77-1.41,0-.2.03-.42.08-.67.09-.42.27-.8.52-1.13.25-.33.59-.59,1.01-.79.42-.19.91-.29,1.47-.29s1.04.13,1.38.38c.18-.16.33-.34.44-.52.11-.18.21-.4.28-.64l.15-.08.8.2c-.12.4-.28.72-.5.96-.21.24-.49.42-.83.53l-.03.14c.25.24.38.55.38.92,0,.14-.02.32-.06.52-.09.44-.28.83-.57,1.18-.29.35-.64.62-1.06.82-.42.2-.89.3-1.39.3-.06,0-.16,0-.31-.01-.17-.01-.29-.02-.37-.02-.26,0-.46.07-.62.2-.16.13-.24.31-.24.52,0,.17.07.3.2.39.14.09.33.15.58.16l1.51.08c.6.03,1.06.18,1.37.43.31.26.47.61.47,1.06,0,.15-.02.31-.06.48-.09.44-.27.8-.52,1.09-.25.29-.62.51-1.13.67-.5.16-1.17.24-2,.24ZM212.91,39.92c.49,0,.9-.13,1.22-.38.32-.25.53-.61.63-1.08.03-.17.05-.31.05-.43,0-.34-.11-.6-.33-.79-.22-.18-.53-.28-.94-.28-.5,0-.9.13-1.22.39-.31.26-.52.63-.63,1.11-.03.16-.05.3-.05.42,0,.34.11.59.32.78.21.18.53.27.95.27ZM211.6,45.23c.52,0,.97-.05,1.35-.15.38-.1.67-.24.87-.41.21-.18.34-.37.38-.59.02-.08.03-.18.03-.28,0-.21-.08-.37-.24-.48-.15-.11-.41-.18-.77-.2l-1.54-.11s-.08-.01-.12-.02c-.04,0-.08-.01-.12-.01-.45,0-.8.1-1.04.28-.24.18-.4.44-.46.76-.02.07-.03.14-.03.22,0,.32.15.56.45.73.3.17.72.26,1.23.26Z"/><path class="cls-3" d="M60.16,27.49V7.28h8.32c.98,0,1.95.11,2.9.32.95.21,1.82.56,2.58,1.05.77.49,1.39,1.16,1.85,2.02.46.86.69,1.92.69,3.19,0,1.16-.2,2.14-.59,2.94-.39.8-.92,1.44-1.59,1.93-.67.49-1.4.87-2.21,1.14l6.01,7.62h-5l-5.46-7.07h-3.18v7.07h-4.33ZM64.5,16.81h4.16c.92,0,1.72-.22,2.4-.67.67-.44,1.01-1.18,1.01-2.2s-.34-1.77-1.01-2.21c-.67-.43-1.47-.65-2.4-.65h-4.16v5.72ZM80.52,27.49V7.28h14.24v3.81h-9.9v4.3h9.04v3.81h-9.04v4.48h10.08v3.81h-14.41ZM107.72,27.9c-1.79,0-3.36-.28-4.71-.85-1.35-.57-2.47-1.35-3.36-2.34-.89-.99-1.56-2.12-2.01-3.38-.44-1.26-.67-2.58-.67-3.94s.22-2.68.67-3.94c.44-1.26,1.11-2.39,2.01-3.38.9-.99,2.02-1.77,3.36-2.34,1.35-.57,2.92-.85,4.71-.85s3.36.28,4.7.85c1.35.57,2.47,1.35,3.37,2.34.9.99,1.56,2.12,2.01,3.38.44,1.26.67,2.57.67,3.94s-.22,2.68-.67,3.94c-.44,1.26-1.11,2.39-2.01,3.38-.9.99-2.02,1.77-3.37,2.34-1.35.57-2.91.85-4.7.85ZM107.72,23.88c1.39,0,2.54-.29,3.48-.88.94-.59,1.64-1.37,2.11-2.37.47-.99.71-2.08.71-3.25s-.24-2.28-.71-3.26c-.47-.98-1.17-1.77-2.11-2.36-.93-.59-2.09-.88-3.48-.88s-2.55.29-3.48.88c-.93.59-1.64,1.37-2.11,2.36-.47.98-.71,2.07-.71,3.26s.23,2.26.71,3.25c.47.99,1.17,1.78,2.11,2.37.94.59,2.1.88,3.48.88ZM121.63,27.49V7.28h4.1l9.36,13.17c-.02-.4-.04-.85-.05-1.34,0-.49-.01-.98-.01-1.46V7.28h4.33v20.21h-4.1l-9.36-13.17c.04.42.06.88.06,1.36v11.81h-4.33ZM156.8,27.9c-1.4,0-2.74-.16-4.02-.47-1.27-.32-2.42-.77-3.46-1.34v-4.13c1.15.77,2.35,1.32,3.58,1.65,1.23.33,2.43.49,3.58.49s2.09-.14,2.76-.43c.67-.29,1-.79,1-1.5,0-.54-.2-.99-.59-1.36-.4-.36-.93-.68-1.59-.93-.66-.26-1.38-.52-2.16-.78-.78-.26-1.56-.56-2.34-.88-.78-.33-1.5-.73-2.16-1.21-.66-.48-1.19-1.08-1.59-1.78-.4-.7-.59-1.56-.59-2.58,0-1.31.33-2.39,1.01-3.23.67-.85,1.57-1.48,2.7-1.89,1.13-.42,2.35-.62,3.68-.62,1.19,0,2.37.14,3.54.41,1.16.27,2.17.66,3.02,1.15v4.07c-.85-.62-1.81-1.08-2.89-1.39-1.08-.31-2.18-.46-3.32-.44-2.19.02-3.29.65-3.29,1.88,0,.5.2.92.59,1.26.39.34.92.63,1.59.88.67.25,1.39.5,2.17.77.78.26,1.56.55,2.34.88.78.33,1.5.73,2.16,1.21.67.48,1.2,1.08,1.59,1.79.39.71.59,1.58.59,2.59,0,1.52-.36,2.71-1.08,3.57-.72.86-1.68,1.47-2.87,1.84-1.19.36-2.5.55-3.93.55ZM167.14,27.49V7.28h4.02v11.55h1.39l3.78-5.2h4.53l-5.02,6.81,5.43,7.05h-4.5l-4.28-5.51h-1.33v5.51h-4.02ZM184.99,11.32c-.62,0-1.17-.18-1.65-.55-.48-.37-.72-.95-.72-1.74s.24-1.36.72-1.71c.48-.36,1.03-.54,1.65-.54s1.18.18,1.65.54c.46.36.69.93.69,1.71s-.23,1.37-.69,1.74c-.46.36-1.01.55-1.65.55ZM182.96,27.49v-13.86h4.02v13.86h-4.02ZM190.47,27.49V6.41h4.02v21.08h-4.02ZM197.98,27.49V6.41h4.02v21.08h-4.02ZM210.48,27.9c-1.06,0-2.06-.11-3.02-.33-.95-.22-1.78-.54-2.5-.97v-3.32c.75.48,1.61.85,2.58,1.1.97.25,1.87.37,2.7.37.73,0,1.31-.08,1.76-.23.44-.15.67-.42.67-.81,0-.36-.19-.66-.57-.89-.37-.23-.86-.43-1.46-.61-.6-.18-1.23-.36-1.89-.57-.66-.2-1.29-.47-1.89-.79-.6-.33-1.08-.76-1.46-1.3-.37-.54-.56-1.22-.56-2.05,0-1.08.28-1.93.83-2.54.56-.62,1.28-1.06,2.16-1.33.89-.27,1.81-.41,2.78-.41s1.9.11,2.76.33c.86.22,1.64.51,2.35.85v3.32c-.6-.4-1.35-.74-2.25-1.01-.91-.27-1.76-.41-2.57-.41-.46,0-.9.07-1.31.22-.41.14-.62.44-.62.88,0,.38.19.69.56.91.38.22.86.42,1.46.59.6.17,1.23.36,1.89.57.67.2,1.29.46,1.88.78.59.32,1.07.75,1.44,1.29.38.54.57,1.23.57,2.08,0,1.08-.3,1.93-.88,2.56-.59.63-1.36,1.07-2.31,1.33-.95.26-1.99.39-3.1.39Z"/></g></svg>