<?xml version="1.0" encoding="UTF-8"?><svg id="Layer_2" xmlns="http://www.w3.org/2000/svg" xmlns:xlink="http://www.w3.org/1999/xlink" viewBox="0 0 477.94 218.86"><defs><style>.cls-1{fill:url(#linear-gradient-8);}.cls-2{fill:url(#linear-gradient-7);}.cls-3{fill:url(#linear-gradient-5);}.cls-4{fill:url(#linear-gradient-6);}.cls-5{fill:url(#linear-gradient-9);}.cls-6{fill:url(#linear-gradient-4);}.cls-7{fill:url(#linear-gradient-3);}.cls-8{fill:url(#linear-gradient-2);}.cls-9{fill:url(#linear-gradient);}.cls-10{fill:url(#linear-gradient-10);}.cls-11{fill:url(#linear-gradient-11);}.cls-12{fill:url(#linear-gradient-12);}.cls-13{fill:url(#linear-gradient-13);}.cls-14{fill:url(#linear-gradient-19);}.cls-15{fill:url(#linear-gradient-14);}.cls-16{fill:url(#linear-gradient-21);}.cls-17{fill:url(#linear-gradient-20);}.cls-18{fill:url(#linear-gradient-22);}.cls-19{fill:url(#linear-gradient-23);}.cls-20{fill:url(#linear-gradient-25);}.cls-21{fill:url(#linear-gradient-15);}.cls-22{fill:url(#linear-gradient-16);}.cls-23{fill:url(#linear-gradient-17);}.cls-24{fill:url(#linear-gradient-18);}.cls-25{fill:url(#linear-gradient-24);}.cls-26{fill:url(#linear-gradient-26);}</style><linearGradient id="linear-gradient" x1="-11.53" y1="91.74" x2="463.03" y2="91.74" gradientUnits="userSpaceOnUse"><stop offset="0" stop-color="#db0044"/><stop offset="1" stop-color="#212874"/></linearGradient><linearGradient id="linear-gradient-2" y1="74.1" x2="463.03" y2="74.1" xlink:href="#linear-gradient"/><linearGradient id="linear-gradient-3" y1="52.76" x2="463.03" y2="52.76" xlink:href="#linear-gradient"/><linearGradient id="linear-gradient-4" y1="27.11" y2="27.11" xlink:href="#linear-gradient"/><linearGradient id="linear-gradient-5" y1="46.37" x2="463.03" y2="46.37" xlink:href="#linear-gradient"/><linearGradient id="linear-gradient-6" y1="16" x2="463.03" y2="16" xlink:href="#linear-gradient"/><linearGradient id="linear-gradient-7" y1="44.76" x2="463.03" y2="44.76" xlink:href="#linear-gradient"/><linearGradient id="linear-gradient-8" y1="14.02" x2="463.03" y2="14.02" xlink:href="#linear-gradient"/><linearGradient id="linear-gradient-9" y1="36.25" x2="463.03" y2="36.25" xlink:href="#linear-gradient"/><linearGradient id="linear-gradient-10" y1="65.86" x2="463.03" y2="65.86" xlink:href="#linear-gradient"/><linearGradient id="linear-gradient-11" y1="41.62" x2="463.03" y2="41.62" xlink:href="#linear-gradient"/><linearGradient id="linear-gradient-12" y1="74.58" x2="463.03" y2="74.58" xlink:href="#linear-gradient"/><linearGradient id="linear-gradient-13" y1="94.61" x2="463.03" y2="94.61" xlink:href="#linear-gradient"/><linearGradient id="linear-gradient-14" y1="15.87" x2="463.03" y2="15.87" xlink:href="#linear-gradient"/><linearGradient id="linear-gradient-15" y1="158.85" x2="463.03" y2="158.85" xlink:href="#linear-gradient"/><linearGradient id="linear-gradient-16" y1="159.14" x2="463.03" y2="159.14" xlink:href="#linear-gradient"/><linearGradient id="linear-gradient-17" y1="157.43" x2="463.03" y2="157.43" xlink:href="#linear-gradient"/><linearGradient id="linear-gradient-18" y1="149.09" x2="463.03" y2="149.09" xlink:href="#linear-gradient"/><linearGradient id="linear-gradient-19" y1="131.56" x2="463.03" y2="131.56" xlink:href="#linear-gradient"/><linearGradient id="linear-gradient-20" y1="163.16" x2="463.03" y2="163.16" xlink:href="#linear-gradient"/><linearGradient id="linear-gradient-21" y1="158.44" x2="463.03" y2="158.44" xlink:href="#linear-gradient"/><linearGradient id="linear-gradient-22" y1="157.43" x2="463.03" y2="157.43" xlink:href="#linear-gradient"/><linearGradient id="linear-gradient-23" y1="158.44" x2="463.03" y2="158.44" xlink:href="#linear-gradient"/><linearGradient id="linear-gradient-24" y1="124.13" x2="463.03" y2="124.13" xlink:href="#linear-gradient"/><linearGradient id="linear-gradient-25" y1="166.28" x2="463.03" y2="166.28" xlink:href="#linear-gradient"/><linearGradient id="linear-gradient-26" y1="166.28" x2="463.03" y2="166.28" xlink:href="#linear-gradient"/></defs><g id="Layer_1-2"><path class="cls-9" d="M194.98,88.27s16.28-13.58,28.73-1.43c0,0,6.42,6.95,9.6,7.84,0,0-23.9,17.11-38.75-2.03,0,0,13.79,4.22,20.58,1.42,0,0-18.04-1.36-20.16-5.79Z"/><path class="cls-8" d="M217.51,71.6s11.73-9.78,20.69-1.03c0,0,4.63,5.01,6.91,5.65,0,0-17.21,12.32-27.91-1.46,0,0,9.93,3.04,14.82,1.02,0,0-13-.98-14.52-4.17Z"/><path class="cls-7" d="M198.24,59.65s5.67-20.63,22.79-19.11c.81.07,1.61.2,2.4.37,2.33.47,9.77,1.86,12.57.88,0,0-10.61,29.77-35.46,21.98,0,0,14.76-4.74,19.05-11.37,0,0-16.77,9.87-21.35,7.25Z"/><path class="cls-6" d="M194.25,41.06s-4.1-18.98,10.31-24.95c.68-.28,1.38-.51,2.09-.71,2.08-.6,8.64-2.61,10.49-4.57,0,0,3.97,28.41-19.3,32.58,0,0,9.89-10.01,10.55-17.15,0,0-9.35,14.98-14.13,14.81Z"/><path class="cls-3" d="M176.77,56.87s-4.44-12.31,4.66-17.59c.43-.25.88-.46,1.33-.66,1.33-.59,5.54-2.51,6.6-3.99,0,0,5.19,18.62-9.98,23.49,0,0,5.71-7.57,5.51-12.4,0,0-4.9,10.84-8.12,11.15Z"/><path class="cls-4" d="M165.44,32.01s-14.54-8.22-10.14-20.9c.21-.6.46-1.18.73-1.75.8-1.68,3.27-7.05,3.06-9.36,0,0,20.53,13.7,9.9,31.04,0,0-.78-12.08-4.99-16.59,0,0,4.28,14.58,1.43,17.55Z"/><path class="cls-2" d="M161.24,62.03s-19.66-4.25-19.13-20.4c.03-.76.11-1.52.22-2.28.32-2.22,1.24-9.27.17-11.85,0,0,28.5,8.4,22.49,32.15,0,0-5.22-13.61-11.67-17.29,0,0,10.14,15.23,7.93,19.67Z"/><path class="cls-1" d="M146.38,22.35s-9.48-2.05-9.23-9.84c.01-.37.05-.73.11-1.1.16-1.07.6-4.47.08-5.72,0,0,13.75,4.05,10.85,15.5,0,0-2.52-6.56-5.63-8.34,0,0,4.89,7.34,3.82,9.49Z"/><path class="cls-5" d="M132.96,49.3s-16.09-1.8-16.98-14.77c-.04-.61-.04-1.23-.01-1.84.08-1.8.24-7.52-.83-9.5,0,0,23.5,4.41,20.62,23.9,0,0-5.29-10.47-10.75-12.89,0,0,9.36,11.37,7.95,15.1Z"/><path class="cls-10" d="M147.22,74.6s-19.83,9.13-29.9-5.23c-.48-.68-.9-1.39-1.29-2.12-1.16-2.13-4.97-8.85-7.58-10.39,0,0,30.21-11.29,40.47,13.23,0,0-13.4-8.41-21.4-7.39,0,0,18.72,6.6,19.7,11.9Z"/><path class="cls-11" d="M113.01,48.46s-10.85,1.78-13.81-6.54c-.14-.39-.25-.79-.34-1.2-.28-1.19-1.23-4.96-2.29-6.06,0,0,16.17-1.43,17.87,11.84,0,0-5.38-5.88-9.4-6.45,0,0,8.2,5.71,7.97,8.41Z"/><path class="cls-12" d="M112.79,80.49s-11.54,3.97-16.34-4.58c-.23-.4-.42-.82-.6-1.25-.53-1.25-2.27-5.2-3.63-6.2,0,0,17.43-4.59,21.77,9.62,0,0-6.99-5.42-11.49-5.3,0,0,10.05,4.72,10.29,7.72Z"/><path class="cls-13" d="M137.83,92.2s-8.76,15.69-22.42,11.02c-.64-.22-1.27-.49-1.89-.78-1.81-.85-7.6-3.48-10.08-3.24,0,0,14.62-22.15,33.33-10.82,0,0-12.99.91-17.81,5.46,0,0,15.65-4.69,18.87-1.64Z"/><path class="cls-15" d="M179.22,30.45s-8.22-14.07,1.71-22.6c.47-.4.97-.77,1.48-1.12,1.5-1.02,6.21-4.34,7.17-6.39,0,0,10.58,21.63-6.89,31.03,0,0,5.27-10.57,3.94-16.44,0,0-3.55,14.39-7.41,15.5Z"/><path class="cls-21" d="M4.51,185.4c-.45,0-.86-.11-1.23-.34-.03-.02-.05-.03-.08-.04-.86-.47-1.74-1.32-2.61-2.55-.2-.31-.34-.66-.43-1.07-.11-.53-.16-1.29-.16-2.25,0-1.05.02-1.84.06-2.34.03-.37.12-1.18.38-3.03.29-2.01.34-2.82.35-3.25.26-2.6.48-6.87.66-13.04.17-6.06.48-11.36.91-15.74.5-5.07,1.36-7.29,2.01-8.26.81-1.06,1.53-1.18,2-1.18.05,0,.1,0,.15,0,.57.03,1.23.22,1.83,1.33.11.22.31.75.55,1.93.21,1.04.37,2.18.5,3.36.18,1.76.29,2.34.42,2.71.26.78.99,1.3,1.81,1.3s1.49-.45,2.99-1.81c2.88-2.71,6.18-4.74,9.85-6.04.02,0,.05-.02.07-.03,1.08-.43,2.5-.65,4.21-.65s3.13.21,4.29.63c1.42.73,2.57,1.77,3.51,3.18.24.37.77,1.24.52,1.57-.04.02-.15.05-.37.06-.84.05-2.13.3-4.07.77-1.93.47-4.2,1.36-6.76,2.64-.01,0-.02.01-.04.02-6.89,3.63-11.66,9.24-14.17,16.69-1.28,3.74-2.02,8.34-2.2,13.66-.11,5.14-.45,7.37-.72,8.35-.45,1.52-1.24,2.49-2.5,3.01-.63.26-1.21.4-1.71.4Z"/><path class="cls-22" d="M48.37,184.26c-.58,0-1.16-.04-1.74-.11-2.54-.38-4.55-1.41-6.13-3.14-1.62-1.77-2.77-4.25-3.4-7.36-.15-1.19-.17-3.11-.04-5.7.13-2.62.31-4.66.55-6.06,1.6-6.53,4.54-12.87,8.74-18.84,2.04-2.94,4.28-5.22,6.64-6.79,2.25-1.49,4.28-2.24,6.03-2.24s3.44.4,4.92,1.21c1.37.75,2.38,1.97,3.09,3.71.74,1.82.96,3.9.66,6.18-.41,3.52-1.74,7.25-3.96,11.11-2.23,3.88-4.9,7.1-7.95,9.57-2.01,1.68-3.75,2.75-5.2,3.2-1.03.32-1.58.37-1.81.37-.04,0-.07,0-.09,0-.83-.55-1.42-.78-2.01-.78-.18,0-.35.02-.52.06-1.83.47-1.67,2.51-1.57,3.63.12,2.07.83,3.58,2.1,4.49.94.68,2.22,1.01,3.91,1.01.44,0,.91-.02,1.4-.07,2.07-.1,4.14-.65,6.15-1.63,1.96-.96,3.56-2.02,4.75-3.16,1.02-.98,2.1-1.94,3.19-2.87.74-.63,1.25-1.02,1.58-1.25-.09.28-.3.8-.73,1.73-2.12,4.31-5.15,7.83-9,10.47-3.17,2.17-6.4,3.27-9.59,3.27ZM49.18,153.74c-.03.06-.06.12-.09.18-.63,1.45-1.03,2.41-1.23,2.93-.21.58-.56,1.54.07,2.45.36.51.97.83,1.59.83.12,0,.25-.01.37-.04.96-.19,1.88-.93,3.39-2.75,1.15-1.38,2.36-3.12,3.58-5.16,1.29-2.15,2.11-3.97,2.51-5.57.1-.39.36-1.43-.32-2.29-.38-.49-.96-.77-1.59-.77-.7,0-1.22.35-1.45.53-1.78,1.2-3.8,3.99-6.33,8.76l-.51.89Z"/><path class="cls-23" d="M87.82,182.46c-.45,0-.89-.09-1.36-.28-.05-.02-.1-.04-.16-.06-1.01-.32-1.81-.89-2.45-1.74-.75-1.01-1.5-2.62-2.22-4.78-1.55-4.55-2.89-9.87-4-15.82-1.12-5.96-1.81-11.38-2.07-16.09-.08-1.79-.06-3.26.06-4.34.11-.98.32-1.82.63-2.51.31-.68.78-1.38,1.42-2.09.7-.69,1.41-1.02,2.23-1.05h.1c.73,0,1.33.26,1.9.82.35.35.61.72.78,1.11.13.3.32.9.45,1.98.12.98.23,2.43.32,4.31.18,5.39.85,11.14,2,17.07.08.42.17.92.25,1.48,0,.03.01.07.02.1.31,1.56.7,3.5,2.52,3.5,1.47,0,2.11-1.35,2.91-3.07.02-.03.03-.07.04-.1.16-.4.29-.75.39-1.03,1.03-2.14,2.72-5.32,5.02-9.44,2.34-4.21,4.65-8.19,6.85-11.81,2.65-4.36,3.64-5.77,4-6.21-.07.63-.13,1.08-.17,1.35-.01.08-.08.48-.42,1.84-1.29,4.98-3.7,12.84-7.18,23.35-3.45,10.44-6.02,17.32-7.63,20.46-.67,1.28-1.55,2.17-2.66,2.69-.54.25-1.05.38-1.57.38Z"/><path class="cls-24" d="M160.92,218.78c-1.71-1.81-4.16-7.32-6.19-23.21-1.69-13.22-2.7-25.82-3-37.46-.3-11.65-.33-21.3-.07-28.68q.31-8.02-.89-8.64s-.03-.02-.05-.02c-.27-.13-.57-.2-.89-.2-.3,0-.73.04-3.01.5-1.76.36-3.51.74-5.22,1.12-2.37.53-3.33.84-3.84,1.53-.06.08-.12.16-.17.25-.6,1.06-.06,1.97.7,3.22.02.03.04.06.06.1,1.91,2.78,3.12,6.57,3.61,11.26.51,4.84.42,9.54-.25,13.95-.69,4.49-1.73,9.2-3.1,14-1.66,5.8-3.92,10.27-6.71,13.26-2.51,2.69-5.23,4-8.32,4-.17,0-.33,0-.5-.01-1.95-.07-3.79-.86-5.64-2.41-5.6-5.32-7.33-17.04-5.15-34.82.69-5.49,1.73-11.07,3.11-16.56,1.36-5.44,2.68-9.51,3.93-12.1.01-.03.02-.05.04-.08.44-1.03,1.13-2.07,2.03-3.09.87-.97,1.67-1.63,2.38-1.96.75-.35,1.4-.53,1.95-.53.23,0,.44.03.64.09.83.26,1.47.6,1.9,1.03.28.28.39.46.43.53.05,1.54,1.15,2.61,2.71,2.61.16,0,.32-.01.49-.03.46-.06,1.36-.23,4.18-.96l14.68-3.67c.13-.03.26-.08.38-.14,1.11-.55,1.29-1.41,1.71-5.59.43-5.01,1.17-10.55,2.21-16.51,1.03-5.25,1.98-7.59,2.59-8.63.85-1.44,1.71-1.62,2.36-1.62.56,0,1.15.14,1.71,1.18.03.07.22.63.32,2.65.08,1.69.06,3.79-.07,6.23-.13,2.51-.26,4.85-.39,6.93-.13,2.03-.28,4.24-.46,6.74-.27,3.65-.27,4.12-.27,4.27,0,.57.25,1.1.69,1.47.34.29.78.44,1.22.44.12,0,.23-.01.35-.03,1.43-.27,2.94-.58,4.5-.93,4.89-.94,10.56-1.77,16.86-2.46.46-.04.9-.06,1.32-.06,1.79,0,3.15.37,4.06,1.1,1.05.84,1.48,1.8,1.39,3.11-.1,1.51-.82,3.09-2.13,4.7-.02.03-.04.05-.06.08-.64.87-1.08,1.26-1.33,1.43.11-.58.21-1.13.29-1.66.11-.75.14-1.38.08-1.94-.11-.99-.89-2.14-2.69-2.14-.26,0-.55.02-.86.07-1.02.15-2.48.59-4.46,1.35-.01,0-.03.01-.04.02-3.76,1.54-8.36,3.01-13.66,4.38-4.65,1.23-5.65,1.59-6.1,2.16-.69.78-.93,3.11-1.75,18.47-.18,3.82-.29,11.76-.33,24.3-.04,12.29-.02,21.95.07,28.7.27,9.54.55,15.97.86,19.68.32,3.9.9,6.83,1.78,8.96.02.04.04.09.06.13.04.08.07.15.1.22-.03-.03-.06-.05-.09-.08ZM126.13,127c-.78,0-1.48.43-1.83,1.13-.19.37-.44,1.06-1.4,5.28-.66,2.92-1.18,5.38-1.53,7.3-2.13,11.81-2.57,21.18-1.31,27.85.75,3.66,1.55,6.67,3.84,6.67,1.44,0,2.35-1.18,2.69-1.66,2.02-2.44,3.77-6.71,5.33-13.04,1.52-6.16,2.29-12.09,2.29-17.64,0-3.91-.63-7.2-1.86-9.81-.34-.88-.91-1.79-1.74-2.77-.8-.94-1.55-1.69-2.3-2.3-.76-.6-1.42-1.01-2.19-1.01Z"/><path class="cls-14" d="M174.31,188.68c-.59,0-1.11-.12-1.58-.37-1.23-.72-2.01-1.65-2.39-2.85-.38-1.43-.39-11.22,3.89-60.66,2.08-25.7,4.03-41.2,5.8-46.09,1.62-4.28,3.5-4.28,4.12-4.28.11,0,.22,0,.34.02.01,0,.03,0,.04,0,1.58.11,2.3.8,2.59,2.43.39,2.25.22,5.26-.52,8.94,0,.02,0,.04-.01.06-1.14,6.74-1.98,12.83-2.51,18.1-.52,5.23-1.45,15.97-2.76,31.92l-1.18,17.61c-.06.9.52,1.72,1.38,1.96.17.05.35.07.52.07.69,0,1.35-.38,1.68-1.02l6.17-11.68c2.36-4.31,3.77-6.06,4.53-6.78.91-.85,2.05-1.26,3.49-1.26.99,0,1.82.2,2.54.61.78.44,1.41.96,1.86,1.54.32.41.81,1.3,1.38,3.24.5,1.72.88,3.3,1.13,4.72.25,1.42.59,3.52,1.04,6.39,0,.02,4.33,23.75,4.33,23.75.78,5.83,1.34,6.94,1.93,7.56.08.1.29.35.25.47-.1.29-.39.56-.88.8-.29.14-.56.22-.82.22-.18,0-.37-.03-.56-.11-.03-.01-.06-.02-.09-.03-.98-.3-3.02-1.62-5.67-7.02-.01-.03-.03-.05-.04-.08-1.41-2.56-2.54-5.44-3.37-8.56-.85-3.2-1.81-7.91-2.84-14.02-.73-5.85-.94-6.06-1.45-6.57-.36-.36-.85-.57-1.36-.57-1.15,0-1.77.94-2.11,1.44-.3.45-.65,1.06-1.08,1.87-.42.79-.87,1.67-1.33,2.6-.47.94-.98,1.99-1.52,3.11-.55,1.15-1.07,2.27-1.54,3.34-.48,1.09-.93,2.11-1.37,3.06-.45.98-.82,1.86-1.1,2.61-1.48,3.75-3.18,8.84-5.03,15.09-1.41,4.98-2.22,6.53-2.58,7.01-.5.67-1.25,1.1-2.27,1.31-.36.07-.71.11-1.04.11Z"/><path class="cls-17" d="M227.2,196.92c-.75,0-1.49-.09-2.2-.27-.02,0-.03,0-.05-.01-1.31-.29-2.37-.73-3.15-1.31-.77-.57-1.45-1.39-2.01-2.45-.02-.04-.05-.09-.07-.13-.41-.65-.62-1.63-.62-2.91,0-1.39.28-2.64.86-3.82.47-.97.87-.97,1.08-.97.03,0,.11,0,.12,0,.13.29.23.53.3.71h0s.08.22.23.98c.15.77.27,1.26.39,1.61.26.78.99,1.3,1.81,1.3,3.22,0,6.06-1.2,8.43-3.57.06-.06.11-.12.16-.19.96-1.26,1.84-2.78,2.6-4.54.81-1.88,1.21-3.52,1.21-5.02,0-.04,0-.08,0-.12-.1-1.61-.57-3.39-1.4-5.3-.79-1.81-2.4-4.62-4.93-8.59-2.24-3.66-3.8-7.04-4.62-10.04-.79-2.87-.85-5.78-.18-8.64.66-2.84,2.2-5.56,4.57-8.1,3.36-3.43,6.81-5.45,10.27-6,.56-.09,1.1-.13,1.6-.13,2.25,0,3.81.88,4.92,2.76.03.05.06.09.09.14.89,1.25.93,2.5.12,4.05-.33.66-.67,1.05-.96,1.11-.61.12-1.33.18-2.13.18-.21,0-.43,0-.66-.01-.11,0-.21,0-.31,0-1.49,0-2.86.39-4.06,1.15-2.52,1.62-4.17,3.29-5.03,5.13-.02.03-.03.07-.04.1-.44,1.11-.66,2.46-.66,4.12,0,.03,0,.07,0,.1.1,1.89.74,4.28,1.97,7.31,1.13,2.79,2.36,5.64,3.64,8.47,1.23,2.72,2.33,5.6,3.26,8.58.89,2.83,1.26,5.78,1.1,8.77-.16,2.87-1.06,5.55-2.69,7.96-1.81,2.68-4.25,4.75-7.24,6.17-2.03.96-3.95,1.45-5.71,1.45Z"/><path class="cls-16" d="M260.34,182.34c-.4,0-.78-.04-1.13-.12-.04,0-.07-.02-.11-.02-2.06-.35-3.8-1.49-5.3-3.47-1.57-2.07-2.52-4.52-2.83-7.29-.15-2.11.33-5.07,1.44-8.79,1.13-3.82,2.69-7.46,4.61-10.81,1.26-2.26,2.86-4.52,4.77-6.72,1.93-2.23,3.97-4.23,6.07-5.94,2.03-1.66,3.94-2.87,5.68-3.58.03-.01.06-.03.09-.04,1.4-.66,2.75-1,4.04-1s2.17.2,2.84.59c.79.47,1.5,1.05,2.11,1.73.63.71.63,1.19.63,1.35,0,.54-.11,1.03-.34,1.49-.09.09-.25.23-.55.4-.42.25-.89.46-1.39.64-.67.24-1.47.57-2.37.98-.88.39-1.8.83-2.82,1.34-1.13.56-2.33,1.43-3.7,2.64-1.25,1.12-2.57,2.42-3.93,3.86-.01.01-.02.03-.04.04-2.85,3.22-5.2,7.21-6.98,11.87-1.84,4.81-2.54,8.63-2.14,11.68,0,.02,0,.03,0,.05.45,2.92,2.4,3.15,2.98,3.15,1.83,0,4.06-1.57,9.03-9.23,2.39-3.63,4.2-6.76,5.38-9.29,3.5-7.32,4.77-9.36,5.22-9.92.93-1.01,1.89-1.48,3.03-1.48.34,0,.7.04,1.08.13,1.6.36,2.55,1.29,3.08,3,.08.92.16,6.13-.17,29.62,0,1.01.1,2,.29,2.96,0,.02,0,.03,0,.05-.01,0-.03,0-.05.01-.26.06-.5.09-.72.09-.38,0-.69-.08-.97-.25-.02-.01-.05-.03-.07-.04-2.3-1.25-4.13-4.96-5.31-10.74-.01-.4-.06-.87-.15-1.41,0-.02,0-.05-.01-.07-.17-.85-.57-2.84-2.39-2.84-1.09,0-1.78.75-3.08,2.45-.02.02-.03.05-.05.07-.61.87-1.13,1.61-1.56,2.22-2.59,3.51-4.87,6.09-6.75,7.64-1.76,1.45-3.59,2.38-5.46,2.75-.02,0-.04,0-.06.01-.7.17-1.36.25-1.94.25Z"/><path class="cls-18" d="M310.33,182.46c-.45,0-.89-.09-1.36-.28-.05-.02-.1-.04-.16-.06-1.01-.32-1.81-.89-2.45-1.74-.75-1.01-1.5-2.62-2.22-4.78-1.54-4.55-2.89-9.87-4-15.82-1.12-5.97-1.81-11.38-2.07-16.09-.08-1.79-.06-3.26.06-4.34.11-.98.32-1.82.63-2.51.3-.68.78-1.38,1.42-2.09.7-.69,1.41-1.02,2.23-1.05h.1c.73,0,1.33.26,1.9.82.35.35.61.72.78,1.11.13.3.32.9.45,1.98.12.99.23,2.44.32,4.31.18,5.39.85,11.14,2,17.07.08.42.17.92.25,1.48,0,.03.01.07.02.1.31,1.56.7,3.5,2.52,3.5,1.47,0,2.11-1.35,2.91-3.07.02-.03.03-.07.04-.1.16-.41.29-.75.39-1.03,1.03-2.14,2.72-5.32,5.02-9.44,2.34-4.21,4.65-8.18,6.85-11.81,2.65-4.36,3.64-5.77,4-6.21-.07.63-.13,1.08-.17,1.35-.01.08-.08.48-.42,1.84-1.29,4.98-3.7,12.84-7.18,23.35-3.45,10.44-6.02,17.32-7.63,20.46-.67,1.28-1.55,2.17-2.66,2.69-.54.25-1.05.38-1.57.38Z"/><path class="cls-19" d="M339.32,182.34c-.4,0-.78-.04-1.13-.12-.04,0-.07-.02-.11-.02-2.06-.35-3.8-1.49-5.3-3.47-1.57-2.07-2.52-4.52-2.83-7.29-.15-2.11.33-5.07,1.44-8.79,1.13-3.82,2.69-7.46,4.61-10.81,1.26-2.26,2.86-4.52,4.77-6.72,1.93-2.23,3.97-4.23,6.07-5.94,2.03-1.66,3.94-2.87,5.68-3.58.03-.01.06-.03.09-.04,1.4-.66,2.75-1,4.04-1s2.17.2,2.84.59c.79.47,1.5,1.05,2.11,1.73.63.71.63,1.19.63,1.35,0,.54-.11,1.03-.34,1.49-.09.09-.25.23-.55.4-.42.25-.89.46-1.39.64-.67.24-1.47.57-2.37.98-.88.39-1.8.83-2.82,1.34-1.13.56-2.33,1.43-3.7,2.64-1.25,1.12-2.57,2.42-3.93,3.86-.01.01-.02.03-.04.04-2.85,3.22-5.2,7.21-6.98,11.87-1.84,4.81-2.54,8.63-2.14,11.68,0,.02,0,.03,0,.05.45,2.92,2.4,3.15,2.98,3.15,1.83,0,4.06-1.57,9.03-9.23,2.39-3.63,4.2-6.76,5.38-9.29,3.5-7.32,4.77-9.36,5.22-9.92.93-1.01,1.89-1.48,3.03-1.48.34,0,.7.04,1.08.13,1.6.36,2.55,1.29,3.08,3,.08.92.16,6.13-.17,29.62,0,1.01.1,2,.29,2.96,0,.02,0,.03,0,.05-.01,0-.03,0-.05.01-.26.06-.5.09-.72.09-.38,0-.69-.08-.97-.25-.02-.01-.05-.03-.07-.04-2.3-1.25-4.13-4.96-5.31-10.74-.01-.4-.06-.87-.15-1.41,0-.02,0-.05-.01-.07-.17-.85-.57-2.84-2.39-2.84-1.09,0-1.78.75-3.08,2.45-.02.02-.03.05-.05.07-.61.87-1.13,1.61-1.56,2.22-2.59,3.51-4.87,6.09-6.75,7.64-1.76,1.45-3.59,2.38-5.46,2.75-.02,0-.04,0-.06.01-.7.17-1.36.25-1.94.25Z"/><path class="cls-25" d="M378.34,136.1c-.29,0-.53-.05-.72-.15-.01,0-.03-.01-.04-.02-.41-.2-.49-.35-.49-.35-.07-.35,0-.79.18-1.29.29-.8.82-2.12,1.61-4.05,1.54-3.53,2.52-6.21,2.98-8.17.53-2.25.62-3.64.29-4.62,0-.18,0-.93.58-3.07.54-1.25,1.4-1.92,2.78-2.15.25-.04.49-.06.72-.06,1,0,1.8.42,2.52,1.33,1.1,1.38,1.6,3.43,1.49,6.09-.12,2.88-.92,5.9-2.38,8.97-1.24,2.55-3.08,4.54-5.62,6.07-2.04,1.22-3.25,1.48-3.9,1.48Z"/><path class="cls-20" d="M394.28,206.46c-.58,0-1.09-.08-1.56-.24l-.14-.05-.13-.06c-1.63-.77-2.57-2.19-2.57-3.88v-.23c0-.7.2-1.43.59-2.18.26-.49.69-1.18,1.37-2.15.01-.02.02-.03.03-.04.57-.79,1.33-1.92,2.26-3.36l3.08-4.73s.22-.34.23-.35c1.77-2.83,3.67-6.05,5.64-9.55,2-3.57,3.82-7,5.39-10.19,5.04-9.97,8.28-18.23,9.61-24.53.43-2.01.64-3.82.64-5.39,0-.9-.07-1.72-.21-2.45-.01-.06-.03-.12-.04-.18-.31-1.06-.93-1.82-1.88-2.33-.02,0-.04-.02-.06-.03-.4-.2-.69-.28-.86-.32-.03,0-.06-.01-.09-.02-.22-.04-.61-.08-1.28-.08-1.82,0-3.67.5-5.49,1.5l-.06.03c-3.2,1.59-6.09,3.89-8.59,6.84-2.22,2.72-3.62,5-4.17,6.8-.72,2.32-.87,3.56-.87,4.2,0,.45.04.87.13,1.25.16.71.71,1.26,1.41,1.43.75.18,1.45.59,2.08,1.22l.09.09.09.11c.65.81.99,1.74.99,2.7v.49l-.05.25c-.25,1.15-.95,2.14-1.99,2.78l-.05.03c-.65.37-1.37.56-2.14.56-.67,0-1.37-.15-2.13-.47-.01,0-.06-.02-.06-.02-3.68-1.86-5.96-4.88-6.62-8.75v-.04s0-.02,0-.02c-.06-.61-.08-1.15-.08-1.73,0-2.01.44-4.19,1.31-6.45,0,0,.01-.03.02-.04,1.62-3.74,4.07-7.33,7.27-10.65,3.2-3.32,6.78-5.95,10.64-7.8,3.23-1.53,6.34-2.31,9.22-2.31,1.85,0,3.66.32,5.38.95l.05.02c3.73,1.49,6.36,4.53,7.59,8.77l.02.06c.36,1.38.54,2.91.54,4.53,0,4.5-1.49,10.15-4.42,16.77l-.02.05c-.44.93-1.06,2.18-1.87,3.8-.78,1.56-1.51,2.98-2.16,4.21-2.93,5.52-7.58,13.28-13.83,23.09-.44.69-.39,1.58.12,2.22.37.46.92.71,1.48.71.22,0,.45-.04.66-.12,1.82-.67,3.7-1.33,5.61-1.95,2.16-.71,4.1-1.25,5.76-1.62,1.68-.37,3.38-.62,5.07-.74h.43c.85,0,1.58.27,2.12.8.49.5.76,1.16.76,1.87s-.29,1.39-.82,1.92c-.55.56-1.23.7-1.64.79-.35.08-.75.14-1.17.18-.03,0-.07,0-.1.01-1.34.21-3.08.68-5.04,1.36-.02,0-.04.01-.05.02-4.6,1.56-8.92,3.53-12.83,5.85-.61.36-1.41.85-2.44,1.52-1.07.68-1.88,1.22-2.57,1.69-3.72,2.52-5.1,3.13-5.88,3.36l-.1.03c-.51.13-1.04.2-1.6.2Z"/><path class="cls-26" d="M439.03,206.29c-1.01,0-1.82-.05-2.48-.14h-.06c-1.6-.28-2.89-.9-3.83-1.83l-.14-.14-.12-.17c-.37-.53-.68-1.09-.92-1.68-.29-.72-.44-1.35-.44-1.94,0-.47.09-.9.28-1.3,0-.02.02-.03.02-.05.31-.71.84-1.27,1.47-1.6.5-.25.95-.37,1.42-.37.53,0,1.04.12,1.52.36.42.21.76.49,1.04.87,0,0,0,.01.02.02.04.06.08.12.12.18.36.53.95.85,1.58.85.05,0,.11,0,.16,0,.72-.06,1.52-.2,2.37-.4.03,0,.05-.01.07-.01,5.27-1.22,10.3-3.75,14.95-7.54.01,0,.02-.02.03-.02,4.8-3.82,8.39-7.75,10.65-11.68.01-.02.03-.05.04-.07,1.16-2.22,1.41-3.71,1.41-4.56,0-.27-.02-.53-.06-.77-.03-.15-.07-.3-.13-.44-.43-1.01-1.36-1.77-2.83-2.33-1.56-.59-3.52-.88-5.84-.88-1.24,0-2.5.06-3.74.19-1.28.13-2.97.37-5.03.7-2.55.45-4.43.67-5.77.67-1.62,0-2.92-.3-3.98-.93-.03-.02-.06-.04-.1-.05-1.11-.57-1.99-1.44-2.55-2.53-.52-1.01-.78-2.03-.78-3.02,0-.36.03-.73.09-1.08.15-.98.53-2.04,1.15-3.26.55-1.07,1.37-2.44,2.44-4.06.02-.02.03-.05.04-.07,2.25-3.34,5.48-7.48,9.59-12.31.58-.68.61-1.68.06-2.39-.37-.48-.94-.75-1.51-.75-.27,0-.55.06-.81.18-1.32.63-2.34,1.11-3.2,1.54-1.21.6-1.74.84-1.96.94-.03.01-.37.18-.37.18-.19.09-.37.22-.52.37h0c-.16.04-.31.09-.46.16-.3.14-.58.25-.85.33-.43.12-.93.17-1.53.17h-.52c-.43,0-.83-.08-1.21-.23-.25-.1-.51-.24-.75-.4l-.04-.03c-1.12-.78-1.72-1.67-1.79-2.71-.02-.33-.03-.55-.03-.63,0-1.16.5-2.25,1.41-3.08,1.02-.94,2.19-1.44,3.4-1.44.02,0,.19,0,.21,0,.26,0,.52-.05.76-.16.12-.05.27-.12.46-.21.51-.23,1.18-.54,2.02-.91.78-.34,1.77-.8,3.04-1.39,7.53-3.53,13.18-5.92,16.78-7.09.85-.28,1.53-.49,2.03-.63.61-.17,1.11-.28,1.53-.33.41-.05.86-.07,1.34-.07h.69c.41,0,.8.06,1.15.18.23.08.46.18.72.3.35.18.69.41,1,.69.22.19.39.36.55.51l.04.05c1.1,1.22,1.63,2.59,1.63,4.18,0,2.01-.93,4.19-2.83,6.67-.01.02-.03.03-.04.05-.41.58-.94,1.22-1.52,1.86-.61.67-1.54,1.65-2.77,2.91-1.27,1.31-3.24,3.28-5.71,5.71-2.31,2.35-4.34,4.42-5.89,6.01-1.42,1.46-2.48,2.58-3.26,3.45-.51.56-.64,1.37-.32,2.06.31.68.99,1.12,1.74,1.12.01,0,.02,0,.03,0,.75-.01,1.51-.01,2.28-.01.64,0,1.28,0,1.92,0,1.99.02,3.47.07,4.53.15h.07c6.31.7,10.82,2.77,13.37,6.18l.04.05c1.24,1.76,2.01,3.85,2.28,6.2.05.4.07.8.07,1.2,0,4-1.94,8.44-5.77,13.2-.64.82-1.54,1.78-2.73,2.96-1.13,1.11-2.1,2.03-2.89,2.74l-.05.04c-5.29,4.49-10.72,7.71-16.14,9.57h-.04c-1.26.42-2.68.8-4.2,1.14-1.56.35-3.04.59-4.4.71-.83.08-1.76.13-2.7.13Z"/></g></svg>