<?xml version="1.0" encoding="UTF-8"?><svg id="Layer_2" xmlns="http://www.w3.org/2000/svg" xmlns:xlink="http://www.w3.org/1999/xlink" viewBox="0 0 664.93 664.93"><defs><style>.cls-1{fill:url(#linear-gradient-3);}.cls-2{fill:url(#linear-gradient-2);}.cls-3{fill:url(#linear-gradient);}.cls-4{fill:#fff;stroke:#231f20;stroke-miterlimit:10;}</style><linearGradient id="linear-gradient" x1="100.87" y1="332.47" x2="633.3" y2="332.47" gradientUnits="userSpaceOnUse"><stop offset="0" stop-color="#0061ff"/><stop offset=".24" stop-color="#0a58e9"/><stop offset=".74" stop-color="#2643b3"/><stop offset="1" stop-color="#363795"/></linearGradient><linearGradient id="linear-gradient-2" x1="100.87" y1="365.73" x2="633.3" y2="365.73" xlink:href="#linear-gradient"/><linearGradient id="linear-gradient-3" x1="100.87" y1="365.73" x2="633.3" y2="365.73" xlink:href="#linear-gradient"/></defs><g id="Layer_1-2"><rect class="cls-4" x=".5" y=".5" width="663.93" height="663.93"/><path class="cls-3" d="M266.79,216.73c15.33-15.33,23-23.2,23-23.61v-.44c0-.12-.02-.23-.05-.34-1.63-4.73-7.8-7.1-18.49-7.1h-4.48c-5.03,0-10.53.87-16.48,2.61-.04.01-.08.03-.12.04-36.34,15.36-54.5,44.72-54.5,88.08v38.8c0,18.34-1.96,39.57-5.87,63.68-4.43,20.92-8.6,34.71-12.5,41.37-.52.89-1.88.51-1.88-.52,0-.03,0-.06,0-.09-3.5-39.86-7.68-69.88-12.52-90.07-23.49-95.53-48.9-143.29-76.2-143.29h-2.01c-11.83,0-18.63,6.78-20.39,20.33,0,.05,0,.1,0,.15.01,9.36,2.64,19.84,7.88,31.46l41.43,89.34c14.42,34.1,27.35,73.55,38.79,118.36l7.89,34.2h0c1.84,0,3.6-.77,4.85-2.13,7.51-8.1,18.83-28.61,33.94-61.56,10.1-23.8,19.52-56.25,28.28-97.35,0-.02,0-.04.01-.07,6.28-44.06,19.41-78,39.38-101.79.02-.02.04-.05.07-.07Z"/><path class="cls-2" d="M406.62,260c-2.75-2.53-7.12-4.43-13.14-5.7-6.01-1.27-11.03-2-15.04-2.22-4.01-.21-10.13-.32-18.36-.32h-37.99c-8.23,0-14.35.11-18.36.32-4.01.21-9.02.95-15.04,2.22-6.02,1.27-10.4,3.17-13.14,5.7-2.75,2.54-5.17,6.28-7.28,11.24-2.11,4.96-3.17,11.13-3.17,18.52v151.95c0,7.39,1.05,13.56,3.17,18.52,2.1,4.96,4.53,8.71,7.28,11.24,2.74,2.53,7.12,4.43,13.14,5.7,6.01,1.27,11.02,2.01,15.04,2.22,4,.22,10.13.32,18.36.32h37.99c8.23,0,14.35-.1,18.36-.32,4-.21,9.02-.95,15.04-2.22,6.02-1.27,10.39-3.17,13.14-5.7,2.74-2.53,5.17-6.27,7.28-11.24,2.11-4.96,3.17-11.13,3.17-18.52v-44.32c0-1.9-.37-3.37-1.11-4.43-.74-1.05-1.42-1.64-2.06-1.74-.63-.1-1.69-.16-3.17-.16h-37.98c-1.48,0-2.53.05-3.17.16-.63.11-1.32.69-2.06,1.74-.74,1.06-1.11,2.53-1.11,4.43v31.66c0,1.9-.37,3.38-1.11,4.43-.74,1.06-1.42,1.64-2.06,1.74-.63.11-1.69.16-3.16.16h-37.99c-1.48,0-2.53-.05-3.17-.16-.63-.1-1.32-.68-2.06-1.74-.74-1.05-1.11-2.54-1.11-4.43v-126.63c0-1.9.37-3.37,1.11-4.43.74-1.05,1.43-1.63,2.06-1.74.64-.1,1.69-.16,3.17-.16h37.99c1.47,0,2.53.05,3.16.16.64.11,1.32.69,2.06,1.74.74,1.06,1.11,2.53,1.11,4.43v31.66c0,1.9.37,3.38,1.11,4.43.74,1.06,1.43,1.64,2.06,1.74.64.11,1.69.16,3.17.16h37.98c1.48,0,2.54-.05,3.17-.16.64-.1,1.32-.68,2.06-1.74.74-1.05,1.11-2.54,1.11-4.43v-44.32c0-7.39-1.06-13.56-3.17-18.52-2.11-4.96-4.54-8.7-7.28-11.24Z"/><path class="cls-1" d="M590.22,260c-2.75-2.53-7.12-4.43-13.14-5.7-6.01-1.27-11.03-2-15.04-2.22-4.01-.21-10.13-.32-18.36-.32h-37.99c-8.23,0-14.35.11-18.36.32-4.01.21-9.02.95-15.04,2.22-6.01,1.27-10.4,3.17-13.14,5.7-2.75,2.53-5.17,6.28-7.28,11.24-2.11,4.96-3.17,11.13-3.17,18.52v151.95c0,7.39,1.05,13.56,3.17,18.52,2.11,4.96,4.54,8.71,7.28,11.24,2.74,2.53,7.12,4.43,13.14,5.7,6.01,1.27,11.03,2.01,15.04,2.22,4.01.21,10.13.32,18.36.32h37.99c8.23,0,14.35-.1,18.36-.32,4.01-.21,9.02-.95,15.04-2.22,6.01-1.27,10.39-3.17,13.14-5.7,2.74-2.53,5.17-6.28,7.28-11.24,2.11-4.96,3.17-11.13,3.17-18.52v-28.49c0-1.9-.37-3.37-1.11-4.43-.74-1.05-1.42-1.63-2.06-1.74-.63-.1-1.69-.16-3.17-.16h-37.99c-1.48,0-2.53.05-3.17.16-.63.11-1.32.69-2.06,1.74-.74,1.06-1.11,2.53-1.11,4.43v15.83c0,1.9-.37,3.38-1.11,4.43-.74,1.06-1.42,1.64-2.06,1.74-.63.11-1.69.16-3.17.16h-37.99c-1.48,0-2.53-.05-3.17-.16-.63-.1-1.32-.68-2.06-1.74-.74-1.05-1.11-2.53-1.11-4.43v-126.63c0-1.9.37-3.37,1.11-4.43.74-1.05,1.42-1.63,2.06-1.74.63-.1,1.69-.16,3.17-.16h37.99c1.47,0,2.53.05,3.17.16.63.11,1.32.69,2.06,1.74.74,1.06,1.11,2.53,1.11,4.43v41.15h-44.32v44.32h88.64c1.47,0,2.53-.05,3.17-.16.63-.1,1.32-.68,2.06-1.74.74-1.05,1.11-2.53,1.11-4.43v-91.8c0-7.38-1.06-13.56-3.17-18.52-2.11-4.96-4.54-8.71-7.28-11.24Z"/></g></svg>