<?xml version="1.0" encoding="UTF-8"?><svg id="Layer_2" xmlns="http://www.w3.org/2000/svg" xmlns:xlink="http://www.w3.org/1999/xlink" viewBox="0 0 445.38 103.02"><defs><style>.cls-1{fill:url(#linear-gradient-3);}.cls-2{fill:url(#linear-gradient-2);}.cls-3{fill:url(#linear-gradient);}.cls-4{fill:#1e3c72;}.cls-5{fill:none;stroke:#1e3c72;stroke-miterlimit:10;stroke-width:2px;}</style><linearGradient id="linear-gradient" x1="12.45" y1="50.09" x2="193.6" y2="50.09" gradientUnits="userSpaceOnUse"><stop offset="0" stop-color="#0061ff"/><stop offset=".24" stop-color="#0a58e9"/><stop offset=".74" stop-color="#2643b3"/><stop offset="1" stop-color="#363795"/></linearGradient><linearGradient id="linear-gradient-2" x1="12.45" y1="61.41" x2="193.6" y2="61.41" xlink:href="#linear-gradient"/><linearGradient id="linear-gradient-3" y1="61.41" x2="193.6" y2="61.41" xlink:href="#linear-gradient"/></defs><g id="Layer_1-2"><path class="cls-4" d="M256.26,50.36v2.24h-17.26v-25.68h16.93v2.24h-14.4v9.26h12.55v2.13h-12.55v9.8h14.72Z"/><path class="cls-4" d="M288.38,52.61h-2.46v-10.46c0-2.18-.35-3.79-1.05-4.82-.7-1.03-1.74-1.55-3.11-1.55s-2.7.5-3.82,1.51c-1.12,1.01-1.91,2.3-2.37,3.88v11.43h-2.46v-10.46c0-2.21-.34-3.82-1.01-4.83-.68-1.02-1.71-1.53-3.11-1.53s-2.67.49-3.8,1.47c-1.13.98-1.93,2.27-2.39,3.88v11.47h-2.46v-18.77h2.24v4.28c.8-1.46,1.81-2.59,3.06-3.38,1.24-.79,2.62-1.19,4.14-1.19s2.83.44,3.8,1.33c.96.89,1.55,2.05,1.77,3.49.87-1.58,1.91-2.78,3.13-3.6,1.22-.81,2.6-1.22,4.14-1.22,1.06,0,1.96.19,2.7.58.74.38,1.33.93,1.77,1.64.45.71.77,1.56.98,2.55s.31,2.1.31,3.33v10.97Z"/><path class="cls-4" d="M303.22,52.97c-1.57,0-2.97-.41-4.21-1.22s-2.22-1.82-2.95-3.02v11.59h-2.46v-26.48h2.21v3.67c.75-1.17,1.75-2.13,3-2.86s2.59-1.1,4.02-1.1c1.3,0,2.5.27,3.58.81,1.08.54,2.03,1.26,2.82,2.18s1.42,1.95,1.86,3.11.67,2.37.67,3.62c0,1.75-.36,3.36-1.07,4.84-.71,1.48-1.71,2.66-2.98,3.54-1.28.89-2.77,1.33-4.49,1.33ZM302.53,50.8c1.04,0,1.96-.21,2.79-.63.82-.42,1.52-.99,2.12-1.71.59-.72,1.04-1.53,1.36-2.42s.47-1.83.47-2.78c0-1.01-.17-1.96-.52-2.87-.35-.91-.85-1.71-1.5-2.41-.65-.69-1.4-1.25-2.24-1.65-.84-.41-1.76-.61-2.75-.61-.63,0-1.28.12-1.95.36-.68.24-1.32.58-1.94,1.02s-1.13.94-1.54,1.49-.66,1.14-.76,1.76v5.76c.39.88.9,1.68,1.56,2.39.65.71,1.4,1.27,2.26,1.69.86.42,1.74.63,2.66.63Z"/><path class="cls-4" d="M323.98,52.97c-1.38,0-2.64-.26-3.78-.77-1.15-.52-2.13-1.22-2.97-2.12s-1.48-1.93-1.94-3.09-.69-2.39-.69-3.69.23-2.6.69-3.76,1.11-2.19,1.95-3.09c.84-.9,1.84-1.61,2.98-2.12,1.14-.52,2.39-.77,3.74-.77s2.59.26,3.73.77c1.13.52,2.12,1.22,2.97,2.12.84.9,1.5,1.93,1.95,3.09.46,1.16.69,2.42.69,3.76s-.23,2.52-.69,3.69c-.46,1.16-1.1,2.19-1.94,3.09s-1.82,1.61-2.97,2.12c-1.15.51-2.39.77-3.74.77ZM317.11,43.33c0,1.39.31,2.65.92,3.79.62,1.14,1.44,2.04,2.48,2.69,1.04.66,2.18.99,3.44.99s2.4-.33,3.44-1.01c1.04-.67,1.87-1.59,2.5-2.75s.94-2.44.94-3.83-.31-2.62-.94-3.77c-.63-1.15-1.46-2.06-2.5-2.73-1.04-.67-2.18-1.01-3.44-1.01s-2.4.35-3.44,1.04c-1.04.69-1.86,1.61-2.48,2.75-.62,1.14-.92,2.41-.92,3.83Z"/><path class="cls-4" d="M360.51,33.83h2.42l-8.1,18.77h-2.13l-3.94-9.33-3.91,9.33h-2.13l-8.1-18.77h2.39l6.87,16.25,3.47-8.47-3.18-7.75h2.21l2.39,6.09,2.42-6.09h2.17l-3.15,7.75,3.47,8.47,6.84-16.25Z"/><path class="cls-4" d="M373.68,52.97c-1.35,0-2.6-.26-3.76-.77-1.16-.52-2.16-1.23-3-2.13-.84-.9-1.5-1.94-1.97-3.12-.47-1.18-.71-2.44-.71-3.79,0-1.75.4-3.35,1.21-4.81.81-1.46,1.92-2.63,3.35-3.5s3.04-1.31,4.85-1.31,3.48.44,4.87,1.33c1.39.89,2.48,2.05,3.27,3.5s1.19,3.04,1.19,4.76v.56c0,.18-.01.32-.04.41h-16.13c.12,1.34.5,2.54,1.14,3.58.64,1.04,1.47,1.87,2.5,2.48s2.14.92,3.35.92,2.39-.31,3.49-.94c1.1-.63,1.86-1.45,2.3-2.46l2.13.58c-.39.89-.98,1.7-1.77,2.42s-1.73,1.28-2.8,1.68c-1.07.4-2.22.6-3.45.6ZM366.74,42.33h13.93c-.1-1.36-.46-2.55-1.1-3.58-.64-1.03-1.47-1.83-2.5-2.42-1.03-.58-2.15-.88-3.38-.88s-2.35.29-3.36.88c-1.01.58-1.84,1.4-2.48,2.43s-1.01,2.23-1.1,3.56Z"/><path class="cls-4" d="M396.18,35.93c-1.64.05-3.08.51-4.32,1.37-1.24.87-2.12,2.06-2.62,3.58v11.72h-2.46v-18.77h2.32v4.45c.65-1.33,1.51-2.4,2.59-3.22,1.07-.82,2.21-1.28,3.42-1.38.24-.02.45-.04.63-.04s.33.01.45.04v2.24Z"/><path class="cls-4" d="M399.47,29.82v-3.62h2.46v3.62h-2.46ZM399.47,52.61v-18.85h2.46v18.85h-2.46Z"/><path class="cls-4" d="M423.2,52.61h-2.46v-10.46c0-2.21-.33-3.82-.98-4.83-.65-1.02-1.68-1.53-3.08-1.53-.96,0-1.92.23-2.86.7s-1.77,1.1-2.48,1.9c-.71.8-1.22,1.72-1.54,2.75v11.47h-2.46v-18.77h2.24v4.28c.51-.91,1.17-1.71,1.99-2.39.82-.68,1.75-1.22,2.79-1.6,1.04-.38,2.11-.58,3.22-.58,1.04,0,1.92.19,2.64.58.72.38,1.3.93,1.74,1.64.43.71.75,1.56.94,2.55s.29,2.1.29,3.33v10.97Z"/><path class="cls-4" d="M436.01,52.97c-1.28,0-2.46-.27-3.54-.8-1.08-.53-2.02-1.25-2.8-2.15-.78-.9-1.39-1.93-1.83-3.09-.43-1.16-.65-2.35-.65-3.58,0-1.33.21-2.57.63-3.74.42-1.17,1.02-2.21,1.81-3.13.78-.92,1.71-1.63,2.77-2.15,1.06-.52,2.24-.78,3.54-.78,1.62,0,3.02.4,4.21,1.21,1.19.81,2.2,1.81,3.02,3.02v-3.94h2.21v18.87c0,1.73-.42,3.19-1.25,4.38-.83,1.19-1.95,2.09-3.36,2.69-1.41.6-2.95.9-4.61.9-2.15,0-3.88-.39-5.21-1.16-1.33-.77-2.41-1.81-3.26-3.11l1.52-1.19c.75,1.18,1.74,2.06,2.98,2.64s2.56.87,3.96.87c1.23,0,2.36-.22,3.38-.66,1.02-.44,1.84-1.1,2.46-1.97.62-.88.92-1.98.92-3.31v-3.73c-.72,1.18-1.71,2.13-2.97,2.84-1.25.71-2.57,1.07-3.94,1.07ZM436.7,50.91c.75,0,1.46-.13,2.15-.4s1.32-.62,1.9-1.07c.58-.45,1.06-.95,1.45-1.5s.63-1.12.72-1.7v-5.82c-.36-.92-.88-1.73-1.56-2.44-.67-.71-1.44-1.27-2.3-1.66-.86-.4-1.74-.6-2.66-.6-1.06,0-2.01.22-2.84.67s-1.53,1.04-2.1,1.77-1.01,1.56-1.32,2.48c-.31.92-.47,1.83-.47,2.75,0,1.01.18,1.97.54,2.88.36.9.86,1.71,1.5,2.42.64.71,1.39,1.26,2.24,1.65.86.39,1.77.58,2.73.58Z"/><path class="cls-4" d="M239.01,94.96v-25.68h2.53v25.68h-2.53Z"/><path class="cls-4" d="M263.31,94.96h-2.46v-10.46c0-2.21-.33-3.82-.98-4.83-.65-1.02-1.68-1.53-3.08-1.53-.96,0-1.92.23-2.86.7s-1.77,1.1-2.48,1.9c-.71.8-1.22,1.72-1.54,2.75v11.47h-2.46v-18.77h2.24v4.28c.51-.91,1.17-1.71,1.99-2.39.82-.68,1.75-1.22,2.79-1.6,1.04-.38,2.11-.58,3.22-.58,1.04,0,1.92.19,2.64.58.72.38,1.3.93,1.74,1.64.43.71.75,1.56.94,2.55s.29,2.1.29,3.33v10.97Z"/><path class="cls-4" d="M277.42,94.2c-.19.07-.5.21-.9.4-.41.19-.9.36-1.48.51s-1.21.22-1.88.22-1.36-.13-1.97-.4c-.62-.27-1.1-.67-1.46-1.22-.36-.54-.54-1.22-.54-2.02v-13.55h-2.6v-1.95h2.6v-6.37h2.46v6.37h4.34v1.95h-4.34v12.87c.05.68.29,1.19.74,1.53s.96.51,1.54.51c.67,0,1.29-.11,1.84-.34.55-.23.89-.39,1.01-.49l.65,1.99Z"/><path class="cls-4" d="M288.31,95.32c-1.35,0-2.6-.26-3.76-.77-1.16-.52-2.16-1.23-3-2.13-.84-.9-1.5-1.94-1.97-3.12-.47-1.18-.71-2.44-.71-3.79,0-1.75.4-3.35,1.21-4.81.81-1.46,1.92-2.63,3.35-3.5s3.04-1.31,4.85-1.31,3.48.44,4.87,1.33c1.39.89,2.48,2.05,3.27,3.5s1.19,3.04,1.19,4.76v.56c0,.18-.01.32-.04.41h-16.13c.12,1.34.5,2.54,1.14,3.58.64,1.04,1.47,1.87,2.5,2.48s2.14.92,3.35.92,2.39-.31,3.49-.94c1.1-.63,1.86-1.45,2.3-2.46l2.13.58c-.39.89-.98,1.7-1.77,2.42s-1.73,1.28-2.8,1.68c-1.07.4-2.22.6-3.45.6ZM281.37,84.68h13.93c-.1-1.36-.46-2.55-1.1-3.58-.64-1.03-1.47-1.83-2.5-2.42-1.03-.58-2.15-.88-3.38-.88s-2.35.29-3.36.88c-1.01.58-1.84,1.4-2.48,2.43s-1.01,2.23-1.1,3.56Z"/><path class="cls-4" d="M301.51,68.55h2.46v22.27c0,.95.17,1.57.51,1.86.34.29.75.44,1.23.44.43,0,.87-.05,1.3-.14.43-.1.81-.19,1.12-.29l.43,1.99c-.46.19-1.02.35-1.68.47-.66.12-1.24.18-1.72.18-1.11,0-2-.33-2.66-.98-.66-.65-1-1.55-1-2.69v-23.1Z"/><path class="cls-4" d="M311.35,68.55h2.46v22.27c0,.95.17,1.57.51,1.86.34.29.75.44,1.23.44.43,0,.87-.05,1.3-.14.43-.1.81-.19,1.12-.29l.43,1.99c-.46.19-1.02.35-1.68.47-.66.12-1.24.18-1.72.18-1.11,0-2-.33-2.66-.98-.66-.65-1-1.55-1-2.69v-23.1Z"/><path class="cls-4" d="M321.08,72.17v-3.62h2.46v3.62h-2.46ZM321.08,94.96v-18.85h2.46v18.85h-2.46Z"/><path class="cls-4" d="M336.53,95.32c-1.28,0-2.46-.27-3.54-.8-1.08-.53-2.02-1.25-2.8-2.15-.78-.9-1.39-1.93-1.83-3.09-.43-1.16-.65-2.35-.65-3.58,0-1.33.21-2.57.63-3.74.42-1.17,1.02-2.21,1.81-3.13.78-.92,1.71-1.63,2.77-2.15,1.06-.52,2.24-.78,3.54-.78,1.62,0,3.02.4,4.21,1.21,1.19.81,2.2,1.81,3.02,3.02v-3.94h2.21v18.87c0,1.73-.42,3.19-1.25,4.38-.83,1.19-1.95,2.09-3.36,2.69-1.41.6-2.95.9-4.61.9-2.15,0-3.88-.39-5.21-1.16-1.33-.77-2.41-1.81-3.26-3.11l1.52-1.19c.75,1.18,1.74,2.06,2.98,2.64s2.56.87,3.96.87c1.23,0,2.36-.22,3.38-.66,1.02-.44,1.84-1.1,2.46-1.97.62-.88.92-1.98.92-3.31v-3.73c-.72,1.18-1.71,2.13-2.97,2.84-1.25.71-2.57,1.07-3.94,1.07ZM337.22,93.26c.75,0,1.46-.13,2.15-.4s1.32-.62,1.9-1.07c.58-.45,1.06-.95,1.45-1.5s.63-1.12.72-1.7v-5.82c-.36-.92-.88-1.73-1.56-2.44-.67-.71-1.44-1.27-2.3-1.66-.86-.4-1.74-.6-2.66-.6-1.06,0-2.01.22-2.84.67s-1.53,1.04-2.1,1.77-1.01,1.56-1.32,2.48c-.31.92-.47,1.83-.47,2.75,0,1.01.18,1.97.54,2.88.36.9.86,1.71,1.5,2.42.64.71,1.39,1.26,2.24,1.65.86.39,1.77.58,2.73.58Z"/><path class="cls-4" d="M359.46,95.32c-1.35,0-2.6-.26-3.76-.77-1.16-.52-2.16-1.23-3-2.13-.84-.9-1.5-1.94-1.97-3.12-.47-1.18-.71-2.44-.71-3.79,0-1.75.4-3.35,1.21-4.81.81-1.46,1.92-2.63,3.35-3.5s3.04-1.31,4.85-1.31,3.48.44,4.87,1.33c1.39.89,2.48,2.05,3.27,3.5s1.19,3.04,1.19,4.76v.56c0,.18-.01.32-.04.41h-16.13c.12,1.34.5,2.54,1.14,3.58.64,1.04,1.47,1.87,2.5,2.48s2.14.92,3.35.92,2.39-.31,3.49-.94c1.1-.63,1.86-1.45,2.3-2.46l2.13.58c-.39.89-.98,1.7-1.77,2.42s-1.73,1.28-2.8,1.68c-1.07.4-2.22.6-3.45.6ZM352.52,84.68h13.93c-.1-1.36-.46-2.55-1.1-3.58-.64-1.03-1.47-1.83-2.5-2.42-1.03-.58-2.15-.88-3.38-.88s-2.35.29-3.36.88c-1.01.58-1.84,1.4-2.48,2.43s-1.01,2.23-1.1,3.56Z"/><path class="cls-4" d="M388.4,94.96h-2.46v-10.46c0-2.21-.33-3.82-.98-4.83-.65-1.02-1.68-1.53-3.08-1.53-.96,0-1.92.23-2.86.7s-1.77,1.1-2.48,1.9c-.71.8-1.22,1.72-1.54,2.75v11.47h-2.46v-18.77h2.24v4.28c.51-.91,1.17-1.71,1.99-2.39.82-.68,1.75-1.22,2.79-1.6,1.04-.38,2.11-.58,3.22-.58,1.04,0,1.92.19,2.64.58.72.38,1.3.93,1.74,1.64.43.71.75,1.56.94,2.55s.29,2.1.29,3.33v10.97Z"/><path class="cls-4" d="M401.82,95.32c-1.38,0-2.64-.26-3.78-.77-1.15-.52-2.15-1.23-3-2.14s-1.52-1.96-1.99-3.13-.71-2.42-.71-3.74c0-1.77.4-3.39,1.19-4.86s1.91-2.63,3.33-3.49,3.06-1.29,4.92-1.29c1.76,0,3.32.4,4.67,1.21s2.35,1.9,3,3.27l-2.39.76c-.53-.96-1.27-1.72-2.22-2.26-.95-.54-2.01-.81-3.17-.81-1.25,0-2.4.32-3.44.97-1.04.65-1.86,1.53-2.48,2.66s-.92,2.41-.92,3.84.31,2.69.94,3.84c.63,1.15,1.46,2.07,2.5,2.75,1.04.68,2.18,1.02,3.44,1.02.82,0,1.61-.14,2.37-.43.76-.29,1.42-.68,1.99-1.17s.95-1.03,1.14-1.61l2.42.72c-.34.89-.9,1.69-1.68,2.41-.78.71-1.7,1.27-2.75,1.66-1.05.4-2.18.6-3.38.6Z"/><path class="cls-4" d="M421.47,95.32c-1.35,0-2.6-.26-3.76-.77-1.16-.52-2.16-1.23-3-2.13-.84-.9-1.5-1.94-1.97-3.12-.47-1.18-.71-2.44-.71-3.79,0-1.75.4-3.35,1.21-4.81.81-1.46,1.92-2.63,3.35-3.5s3.04-1.31,4.85-1.31,3.48.44,4.87,1.33c1.39.89,2.48,2.05,3.27,3.5s1.19,3.04,1.19,4.76v.56c0,.18-.01.32-.04.41h-16.13c.12,1.34.5,2.54,1.14,3.58.64,1.04,1.47,1.87,2.5,2.48s2.14.92,3.35.92,2.39-.31,3.49-.94c1.1-.63,1.86-1.45,2.3-2.46l2.13.58c-.39.89-.98,1.7-1.77,2.42s-1.73,1.28-2.8,1.68c-1.07.4-2.22.6-3.45.6ZM414.52,84.68h13.93c-.1-1.36-.46-2.55-1.1-3.58-.64-1.03-1.47-1.83-2.5-2.42-1.03-.58-2.15-.88-3.38-.88s-2.35.29-3.36.88c-1.01.58-1.84,1.4-2.48,2.43s-1.01,2.23-1.1,3.56Z"/><path class="cls-3" d="M68.9,10.72c5.22-5.22,7.82-7.89,7.82-8.03v-.15s0-.08-.02-.12c-.56-1.61-2.65-2.42-6.29-2.42h-1.53c-1.71,0-3.58.3-5.61.89-.01,0-.03,0-.04.02-12.36,5.23-18.54,15.22-18.54,29.97v13.2c0,6.24-.67,13.46-2,21.67-1.51,7.12-2.93,11.81-4.25,14.07-.18.3-.64.17-.64-.18,0-.01,0-.02,0-.03-1.19-13.56-2.61-23.77-4.26-30.64C25.56,16.46,16.92.21,7.63.21h-.68C2.92.21.6,2.52,0,7.13c0,.02,0,.03,0,.05,0,3.18.9,6.75,2.68,10.7l14.09,30.4c4.91,11.6,9.31,25.02,13.2,40.27l2.69,11.64h0c.63,0,1.22-.26,1.65-.72,2.56-2.75,6.41-9.74,11.55-20.94,3.43-8.1,6.64-19.14,9.62-33.12,0,0,0-.02,0-.02,2.14-14.99,6.6-26.54,13.4-34.63,0,0,.01-.02.02-.02Z"/><path class="cls-2" d="M116.48,25.44c-.93-.86-2.42-1.51-4.47-1.94-2.05-.43-3.75-.68-5.12-.75-1.37-.07-3.45-.11-6.25-.11h-12.92c-2.8,0-4.88.04-6.25.11-1.37.07-3.07.32-5.12.75-2.05.43-3.54,1.08-4.47,1.94-.93.86-1.76,2.14-2.48,3.82-.72,1.69-1.08,3.79-1.08,6.3v51.7c0,2.51.36,4.61,1.08,6.3.72,1.69,1.54,2.96,2.48,3.82.93.86,2.42,1.51,4.47,1.94,2.05.43,3.75.68,5.12.75,1.36.07,3.45.11,6.25.11h12.92c2.8,0,4.88-.04,6.25-.11,1.36-.07,3.07-.32,5.12-.75,2.05-.43,3.54-1.08,4.47-1.94.93-.86,1.76-2.13,2.48-3.82.72-1.69,1.08-3.79,1.08-6.3v-15.08c0-.65-.13-1.15-.38-1.51-.25-.36-.48-.56-.7-.59-.21-.04-.57-.05-1.08-.05h-12.92c-.5,0-.86.02-1.08.05-.21.04-.45.23-.7.59-.25.36-.38.86-.38,1.51v10.77c0,.65-.13,1.15-.38,1.51-.25.36-.48.56-.7.59-.21.04-.57.05-1.08.05h-12.92c-.5,0-.86-.02-1.08-.05-.21-.04-.45-.23-.7-.59-.25-.36-.38-.86-.38-1.51v-43.08c0-.65.13-1.15.38-1.51.25-.36.49-.55.7-.59.22-.04.57-.05,1.08-.05h12.92c.5,0,.86.02,1.08.05.22.04.45.23.7.59.25.36.38.86.38,1.51v10.77c0,.65.13,1.15.38,1.51.25.36.49.56.7.59.22.04.57.05,1.08.05h12.92c.5,0,.86-.02,1.08-.05.22-.04.45-.23.7-.59.25-.36.38-.86.38-1.51v-15.08c0-2.51-.36-4.61-1.08-6.3-.72-1.69-1.54-2.96-2.48-3.82Z"/><path class="cls-1" d="M178.94,25.44c-.93-.86-2.42-1.51-4.47-1.94-2.05-.43-3.75-.68-5.12-.75-1.36-.07-3.45-.11-6.25-.11h-12.92c-2.8,0-4.88.04-6.25.11-1.36.07-3.07.32-5.12.75-2.05.43-3.54,1.08-4.47,1.94-.93.86-1.76,2.14-2.48,3.82-.72,1.69-1.08,3.79-1.08,6.3v51.7c0,2.51.36,4.61,1.08,6.3.72,1.69,1.54,2.96,2.48,3.82.93.86,2.42,1.51,4.47,1.94,2.05.43,3.75.68,5.12.75,1.36.07,3.45.11,6.25.11h12.92c2.8,0,4.88-.04,6.25-.11,1.36-.07,3.07-.32,5.12-.75,2.05-.43,3.54-1.08,4.47-1.94.93-.86,1.76-2.14,2.48-3.82.72-1.69,1.08-3.79,1.08-6.3v-9.69c0-.65-.13-1.15-.38-1.51-.25-.36-.48-.56-.7-.59-.22-.04-.58-.05-1.08-.05h-12.92c-.5,0-.86.02-1.08.05-.22.04-.45.23-.7.59-.25.36-.38.86-.38,1.51v5.39c0,.65-.13,1.15-.38,1.51-.25.36-.48.56-.7.59-.22.04-.58.05-1.08.05h-12.92c-.5,0-.86-.02-1.08-.05-.22-.04-.45-.23-.7-.59-.25-.36-.38-.86-.38-1.51v-43.08c0-.65.12-1.15.38-1.51.25-.36.48-.56.7-.59.22-.04.57-.05,1.08-.05h12.92c.5,0,.86.02,1.08.05.22.04.45.23.7.59.25.36.38.86.38,1.51v14h-15.08v15.08h30.16c.5,0,.86-.02,1.08-.05.22-.04.45-.23.7-.59.25-.36.38-.86.38-1.51v-31.23c0-2.51-.36-4.61-1.08-6.3-.72-1.69-1.54-2.96-2.48-3.82Z"/><line class="cls-5" x1="209.06" y1="14.3" x2="209.06" y2="103.02"/></g></svg>