<?xml version="1.0" encoding="UTF-8"?><svg id="Layer_2" xmlns="http://www.w3.org/2000/svg" xmlns:xlink="http://www.w3.org/1999/xlink" viewBox="0 0 815.99 642.56"><defs><style>.cls-1{fill:url(#linear-gradient-8);}.cls-2{fill:url(#linear-gradient-7);}.cls-3{fill:url(#linear-gradient-5);}.cls-4{fill:url(#linear-gradient-6);}.cls-5{fill:url(#linear-gradient-9);}.cls-6{fill:url(#linear-gradient-4);}.cls-7{fill:url(#linear-gradient-3);}.cls-8{fill:url(#linear-gradient-2);}.cls-9{fill:url(#linear-gradient);}.cls-10{fill:url(#linear-gradient-10);}.cls-11{fill:url(#linear-gradient-11);}.cls-12{fill:url(#linear-gradient-12);}.cls-13{fill:url(#linear-gradient-13);}.cls-14{fill:url(#linear-gradient-19);}.cls-15{fill:url(#linear-gradient-14);}.cls-16{fill:url(#linear-gradient-21);}.cls-17{fill:url(#linear-gradient-20);}.cls-18{fill:url(#linear-gradient-22);}.cls-19{fill:url(#linear-gradient-15);}.cls-20{fill:url(#linear-gradient-16);}.cls-21{fill:url(#linear-gradient-17);}.cls-22{fill:url(#linear-gradient-18);}</style><linearGradient id="linear-gradient" x1="-25.99" y1="480.43" x2="859.29" y2="480.43" gradientUnits="userSpaceOnUse"><stop offset="0" stop-color="#fe5000"/><stop offset=".23" stop-color="#fe5302"/><stop offset=".41" stop-color="#fe5d09"/><stop offset=".58" stop-color="#fe6e15"/><stop offset=".74" stop-color="#fe8627"/><stop offset=".89" stop-color="#fea53d"/><stop offset=".95" stop-color="#ffb347"/></linearGradient><linearGradient id="linear-gradient-2" y1="549.21" y2="549.21" xlink:href="#linear-gradient"/><linearGradient id="linear-gradient-3" y1="519.83" y2="519.83" xlink:href="#linear-gradient"/><linearGradient id="linear-gradient-4" y1="549.21" y2="549.21" xlink:href="#linear-gradient"/><linearGradient id="linear-gradient-5" x1="-26.02" y1="548" x2="859.25" y2="548" xlink:href="#linear-gradient"/><linearGradient id="linear-gradient-6" y1="549.1" y2="549.1" xlink:href="#linear-gradient"/><linearGradient id="linear-gradient-7" y1="499.89" y2="499.89" xlink:href="#linear-gradient"/><linearGradient id="linear-gradient-8" y1="475.1" y2="475.1" xlink:href="#linear-gradient"/><linearGradient id="linear-gradient-9" y1="223.68" y2="223.68" xlink:href="#linear-gradient"/><linearGradient id="linear-gradient-10" y1="365.56" y2="365.56" xlink:href="#linear-gradient"/><linearGradient id="linear-gradient-11" y1="475.1" y2="475.1" xlink:href="#linear-gradient"/><linearGradient id="linear-gradient-12" y1="549.21" y2="549.21" xlink:href="#linear-gradient"/><linearGradient id="linear-gradient-13" y1="519.83" y2="519.83" xlink:href="#linear-gradient"/><linearGradient id="linear-gradient-14" y1="549.21" y2="549.21" xlink:href="#linear-gradient"/><linearGradient id="linear-gradient-15" x1="-26.02" y1="548" x2="859.25" y2="548" xlink:href="#linear-gradient"/><linearGradient id="linear-gradient-16" y1="549.1" y2="549.1" xlink:href="#linear-gradient"/><linearGradient id="linear-gradient-17" y1="499.89" y2="499.89" xlink:href="#linear-gradient"/><linearGradient id="linear-gradient-18" y1="546.28" y2="546.28" xlink:href="#linear-gradient"/><linearGradient id="linear-gradient-19" y1="475.1" y2="475.1" xlink:href="#linear-gradient"/><linearGradient id="linear-gradient-20" y1="223.68" y2="223.68" xlink:href="#linear-gradient"/><linearGradient id="linear-gradient-21" y1="365.56" y2="365.56" xlink:href="#linear-gradient"/><linearGradient id="linear-gradient-22" y1="475.1" y2="475.1" xlink:href="#linear-gradient"/></defs><g id="Layer_14"><path class="cls-9" d="M212.05,447.35h-13.95c-.87-19.35-1.56-38.01-1.93-53.73h-.69c-6.59,27.78-15.97,57.99-27.08,90.97l-37.85,111.46h-26.13l-37.85-111.46c-11.12-32.98-20.49-63.19-27.08-90.97h-.69c-.69,29.17-2.43,68.4-4.51,103.47l-6.25,100.35H11.04c-6.4,0-11.46-5.42-11.01-11.81l14.77-211.91c.41-5.81,5.23-10.32,11.06-10.32h28.21l39.93,113.19c9.65,28.61,17.59,54.14,23.48,78.28,5.89-24.14,13.83-49.67,23.48-78.28l39.93-113.19h28.21c5.82,0,10.65,4.5,11.06,10.32l4.21,60.42c.5,7.14-5.16,13.2-12.32,13.2Z"/><path class="cls-8" d="M235.36,602.68l-1.55-13.48h-.66c-5.96,8.4-17.45,15.91-32.7,15.91-21.65,0-32.7-15.24-32.7-30.71,0-25.85,22.98-39.99,64.29-39.77v-2.21c0-8.84-2.43-24.74-24.3-24.74-5.71,0-11.57,1.02-16.95,2.81-6.32,2.11-13.13-1.38-15.3-7.67h0c8.84-5.74,21.65-9.5,35.13-9.5,32.7,0,40.65,22.31,40.65,43.74v39.99c0,3.63.07,7.23.23,10.71.38,8.14-6.16,14.92-14.31,14.92h-1.82ZM232.49,548.11c-21.21-.44-45.29,3.31-45.29,24.08,0,12.59,8.39,18.56,18.34,18.56,13.92,0,22.76-8.84,25.85-17.9.66-1.99,1.11-4.2,1.11-6.19v-18.56Z"/><path class="cls-7" d="M373.66,539.04v103.52l-9.13-1.44c-5.94-.94-10.32-6.05-10.32-12.06v-87.8c0-17.24-6.4-31.82-24.75-31.82-12.58,0-22.53,8.84-26.07,19.45-1.1,2.65-1.32,5.52-1.32,9.27v52.66c0,6.54-5.31,11.85-11.86,11.85h-7.58v-205.57l10.97,8.02c5.32,3.89,8.47,10.07,8.47,16.66v90.76h.44c3.1-5.53,7.95-10.39,13.92-13.7,5.75-3.32,12.6-5.52,19.88-5.52,14.37,0,37.35,8.83,37.35,45.72Z"/><path class="cls-6" d="M464.44,602.68l-1.55-13.48h-.66c-5.97,8.4-17.45,15.91-32.7,15.91-21.65,0-32.7-15.24-32.7-30.71,0-25.85,22.98-39.99,64.29-39.77v-2.21c0-8.84-2.43-24.74-24.3-24.74-5.71,0-11.57,1.02-16.95,2.81-6.32,2.11-13.14-1.38-15.31-7.67h0c8.84-5.74,21.65-9.5,35.13-9.5,32.7,0,40.65,22.31,40.65,43.74v39.99c0,3.02.05,6.03.16,8.95.34,9.1-6.89,16.68-16,16.68h-.07ZM461.57,548.11c-21.21-.44-45.29,3.31-45.29,24.08,0,12.59,8.4,18.56,18.34,18.56,13.92,0,22.76-8.84,25.85-17.9.66-1.99,1.11-4.2,1.11-6.19v-18.56Z"/><path class="cls-3" d="M511.71,529.11c0-12.59-.22-23.42-.88-33.36h6.23c6.01,0,10.93,4.77,11.12,10.77l.32,10.21h.88c4.86-14.36,16.57-23.42,29.61-23.42,2.21,0,3.75.22,5.52.66v11.13c0,3.6-2.95,6.55-6.55,6.54h-.08c-13.7,0-23.42,10.38-26.07,24.97-.44,2.65-.88,5.74-.88,9.06v42.73c0,7.88-6.39,14.27-14.27,14.27h-4.95s0-73.57,0-73.57Z"/><path class="cls-4" d="M581.3,582.79c5.74,3.76,15.91,7.73,25.63,7.73,14.14,0,20.77-7.07,20.77-15.91,0-9.28-5.52-14.36-19.88-19.66-19.22-6.85-28.28-17.45-28.28-30.27,0-17.23,13.92-31.37,36.9-31.37,4.68,0,9.11.58,13.11,1.52,7.42,1.74,11.63,9.6,9.16,16.8l-.84,2.45c-4.2-2.65-11.93-6.19-21.87-6.19-11.49,0-17.89,6.63-17.89,14.58,0,8.84,6.41,12.81,20.32,18.12,18.56,7.07,28.06,16.35,28.06,32.26,0,18.78-14.58,32.03-39.99,32.03-4.72,0-9.3-.47-13.58-1.31-9.25-1.83-14.63-11.59-11.69-20.54l.08-.24Z"/><path class="cls-2" d="M762.45,539.04v63.63h-7.39c-6.65,0-12.05-5.39-12.05-12.05v-49.36c0-17.24-6.41-31.82-24.74-31.82-12.6,0-22.54,8.84-26.07,19.45-1.11,2.65-1.33,5.52-1.33,9.27v50.58c0,7.69-6.24,13.93-13.93,13.93h-5.51v-184.38c0-5.65,2.91-10.89,7.7-13.87l11.74-7.32v115.44h.45c3.09-5.53,7.95-10.39,13.92-13.7,5.73-3.32,12.58-5.52,19.88-5.52,14.35,0,37.33,8.83,37.33,45.72Z"/><circle class="cls-1" cx="803.75" cy="475.1" r="12.24"/><path class="cls-5" d="M470.06,435.26s-25.64-168.51,92.24-245.59C680.18,112.59,736.1,92.95,785.22,0c0,0,61.96,445.84-303.02,447.35,0,0,173.05-90.68,246.35-293.2,0,0-105.13,187.41-258.49,281.11Z"/><path class="cls-10" d="M456.5,439.04s20.4-170.02-228.97-154.91c0,0,58.57,38.55,87.59,103.9.38.86.75,1.74,1.1,2.61,2.85,7.09,28.88,63.57,131.21,56.71,0,0-64.23-98.24-142.07-130.73,0,0,94.46,32.49,151.13,122.42Z"/><path class="cls-11" d="M785.23,475.1c0,1.65.27,3.26.79,4.78H175.87c.7-1.57,1.38-3.12,2.05-4.67,1.29-2.94,4.71-4.9,8.53-4.9h599.57c-.52,1.52-.79,3.14-.79,4.79Z"/><path class="cls-9" d="M212.05,447.35h-13.95c-.87-19.35-1.56-38.01-1.93-53.73h-.69c-6.59,27.78-15.97,57.99-27.08,90.97l-37.85,111.46h-26.13l-37.85-111.46c-11.12-32.98-20.49-63.19-27.08-90.97h-.69c-.69,29.17-2.43,68.4-4.51,103.47l-6.25,100.35H11.04c-6.4,0-11.46-5.42-11.01-11.81l14.77-211.91c.41-5.81,5.23-10.32,11.06-10.32h28.21l39.93,113.19c9.65,28.61,17.59,54.14,23.48,78.28,5.89-24.14,13.83-49.67,23.48-78.28l39.93-113.19h28.21c5.82,0,10.65,4.5,11.06,10.32l4.21,60.42c.5,7.14-5.16,13.2-12.32,13.2Z"/><path class="cls-12" d="M235.36,602.68l-1.55-13.48h-.66c-5.96,8.4-17.45,15.91-32.7,15.91-21.65,0-32.7-15.24-32.7-30.71,0-25.85,22.98-39.99,64.29-39.77v-2.21c0-8.84-2.43-24.74-24.3-24.74-5.71,0-11.57,1.02-16.95,2.81-6.32,2.11-13.13-1.38-15.3-7.67h0c8.84-5.74,21.65-9.5,35.13-9.5,32.7,0,40.65,22.31,40.65,43.74v39.99c0,3.63.07,7.23.23,10.71.38,8.14-6.16,14.92-14.31,14.92h-1.82ZM232.49,548.11c-21.21-.44-45.29,3.31-45.29,24.08,0,12.59,8.39,18.56,18.34,18.56,13.92,0,22.76-8.84,25.85-17.9.66-1.99,1.11-4.2,1.11-6.19v-18.56Z"/><path class="cls-13" d="M373.66,539.04v103.52l-9.13-1.44c-5.94-.94-10.32-6.05-10.32-12.06v-87.8c0-17.24-6.4-31.82-24.75-31.82-12.58,0-22.53,8.84-26.07,19.45-1.1,2.65-1.32,5.52-1.32,9.27v52.66c0,6.54-5.31,11.85-11.86,11.85h-7.58v-205.57l10.97,8.02c5.32,3.89,8.47,10.07,8.47,16.66v90.76h.44c3.1-5.53,7.95-10.39,13.92-13.7,5.75-3.32,12.6-5.52,19.88-5.52,14.37,0,37.35,8.83,37.35,45.72Z"/><path class="cls-15" d="M464.44,602.68l-1.55-13.48h-.66c-5.97,8.4-17.45,15.91-32.7,15.91-21.65,0-32.7-15.24-32.7-30.71,0-25.85,22.98-39.99,64.29-39.77v-2.21c0-8.84-2.43-24.74-24.3-24.74-5.71,0-11.57,1.02-16.95,2.81-6.32,2.11-13.14-1.38-15.31-7.67h0c8.84-5.74,21.65-9.5,35.13-9.5,32.7,0,40.65,22.31,40.65,43.74v39.99c0,3.02.05,6.03.16,8.95.34,9.1-6.89,16.68-16,16.68h-.07ZM461.57,548.11c-21.21-.44-45.29,3.31-45.29,24.08,0,12.59,8.4,18.56,18.34,18.56,13.92,0,22.76-8.84,25.85-17.9.66-1.99,1.11-4.2,1.11-6.19v-18.56Z"/><path class="cls-19" d="M511.71,529.11c0-12.59-.22-23.42-.88-33.36h6.23c6.01,0,10.93,4.77,11.12,10.77l.32,10.21h.88c4.86-14.36,16.57-23.42,29.61-23.42,2.21,0,3.75.22,5.52.66v11.13c0,3.6-2.95,6.55-6.55,6.54h-.08c-13.7,0-23.42,10.38-26.07,24.97-.44,2.65-.88,5.74-.88,9.06v42.73c0,7.88-6.39,14.27-14.27,14.27h-4.95s0-73.57,0-73.57Z"/><path class="cls-20" d="M581.3,582.79c5.74,3.76,15.91,7.73,25.63,7.73,14.14,0,20.77-7.07,20.77-15.91,0-9.28-5.52-14.36-19.88-19.66-19.22-6.85-28.28-17.45-28.28-30.27,0-17.23,13.92-31.37,36.9-31.37,4.68,0,9.11.58,13.11,1.52,7.42,1.74,11.63,9.6,9.16,16.8l-.84,2.45c-4.2-2.65-11.93-6.19-21.87-6.19-11.49,0-17.89,6.63-17.89,14.58,0,8.84,6.41,12.81,20.32,18.12,18.56,7.07,28.06,16.35,28.06,32.26,0,18.78-14.58,32.03-39.99,32.03-4.72,0-9.3-.47-13.58-1.31-9.25-1.83-14.63-11.59-11.69-20.54l.08-.24Z"/><path class="cls-21" d="M762.45,539.04v63.63h-7.39c-6.65,0-12.05-5.39-12.05-12.05v-49.36c0-17.24-6.41-31.82-24.74-31.82-12.6,0-22.54,8.84-26.07,19.45-1.11,2.65-1.33,5.52-1.33,9.27v50.58c0,7.69-6.24,13.93-13.93,13.93h-5.51v-184.38c0-5.65,2.91-10.89,7.7-13.87l11.74-7.32v115.44h.45c3.09-5.53,7.95-10.39,13.92-13.7,5.73-3.32,12.58-5.52,19.88-5.52,14.35,0,37.33,8.83,37.33,45.72Z"/><path class="cls-22" d="M803.75,493.46c-3.57,0-6.9-1.02-9.72-2.78v96.92c0,11.51,8.7,14.27,19.44,14.27v-111.19c-2.82,1.77-6.15,2.78-9.72,2.78Z"/><circle class="cls-14" cx="803.75" cy="475.1" r="12.24"/><path class="cls-17" d="M470.06,435.26s-25.64-168.51,92.24-245.59C680.18,112.59,736.1,92.95,785.22,0c0,0,61.96,445.84-303.02,447.35,0,0,173.05-90.68,246.35-293.2,0,0-105.13,187.41-258.49,281.11Z"/><path class="cls-16" d="M456.5,439.04s20.4-170.02-228.97-154.91c0,0,58.57,38.55,87.59,103.9.38.86.75,1.74,1.1,2.61,2.85,7.09,28.88,63.57,131.21,56.71,0,0-64.23-98.24-142.07-130.73,0,0,94.46,32.49,151.13,122.42Z"/><path class="cls-18" d="M785.23,475.1c0,1.65.27,3.26.79,4.78H175.87c.7-1.57,1.38-3.12,2.05-4.67,1.29-2.94,4.71-4.9,8.53-4.9h599.57c-.52,1.52-.79,3.14-.79,4.79Z"/></g></svg>